M48
; DRILL file {KiCad (5.1.5)-3} date 03/05/2020 14:35:13
; FORMAT={-:-/ absolute / inch / decimal}
; #@! TF.CreationDate,2020-05-03T14:35:13+01:00
; #@! TF.GenerationSoftware,Kicad,Pcbnew,(5.1.5)-3
; #@! TF.FileFunction,Plated,1,2,PTH
FMAT,2
INCH
T1C0.0157
T2C0.0295
T3C0.0315
T4C0.0394
T5C0.0394
T6C0.0433
T7C0.0508
%
G90
G05
T1
X3.81Y-2.92
X3.9Y-3.79
X3.9177Y-4.06
X3.95Y-3.03
X3.99Y-4.06
X4.0Y-2.8
X4.0Y-3.25
X4.02Y-4.12
X4.02Y-4.28
X4.03Y-4.98
X4.04Y-2.7
X4.04Y-3.04
X4.07Y-4.98
X4.15Y-3.43
X4.18Y-2.88
X4.18Y-3.05
X4.18Y-3.4
X4.32Y-3.47
X4.38Y-3.14
X4.41Y-2.73
X4.41Y-3.18
X4.43Y-3.47
X4.46Y-3.68
X4.47Y-3.4
X4.4998Y-3.6902
X4.59Y-3.24
X4.6Y-3.75
X4.66Y-3.81
X4.75Y-4.58
X4.76Y-3.13
X4.76Y-3.24
X4.76Y-4.39
X4.85Y-2.7604
X4.88Y-4.39
X4.88Y-4.58
X4.9206Y-3.2394
X5.04Y-4.65
X5.07Y-3.24
X5.12Y-3.14
X5.16Y-2.61
X5.2Y-3.77
X5.2Y-3.81
X5.21Y-4.24
X5.21Y-4.45
X5.25Y-4.2528
X5.27Y-3.13
X5.31Y-2.78
X5.31Y-2.83
X5.35Y-3.515
X5.36Y-4.69
X5.46Y-3.515
X5.48Y-2.83
X5.53Y-3.84
X5.67Y-4.26
X5.78Y-2.5
X5.78Y-2.77
X5.78Y-3.56
X5.8Y-3.26
X5.81Y-4.11
X5.84Y-3.92
X5.85Y-3.72
X5.86Y-2.95
X5.95Y-2.86
X6.03Y-4.98
T2
X5.56Y-4.1
X5.61Y-4.1
X5.66Y-4.1
X5.26Y-4.1
X5.31Y-4.1
X5.36Y-4.1
T3
X5.7516Y-4.46
X5.85Y-4.46
X5.45Y-4.46
X5.5484Y-4.46
T4
X4.64Y-4.63
X4.64Y-4.73
X4.64Y-4.83
X5.92Y-4.08
X3.9Y-4.19
X3.9Y-4.29
X3.9Y-4.39
X3.9Y-4.49
X3.9Y-5.06
X4.0Y-5.06
X4.1Y-5.06
X4.2Y-5.06
X5.16Y-4.63
X5.16Y-4.73
X5.16Y-4.83
X5.92Y-3.06
X5.92Y-3.16
X5.92Y-3.26
X5.92Y-3.36
X3.9Y-2.65
X3.9Y-2.75
X3.9Y-2.85
X3.9Y-2.95
X5.45Y-4.86
X5.65Y-4.86
X3.9Y-3.39
X3.9Y-3.49
X3.9Y-3.59
X3.9Y-3.69
T5
X5.03Y-5.06
X5.18Y-5.06
X5.45Y-5.06
X5.6Y-5.06
X4.53Y-5.06
X4.68Y-5.06
T6
X5.58Y-3.3316
X5.58Y-3.5284
X5.58Y-2.9216
X5.58Y-3.1184
T7
X5.85Y-4.81
X5.85Y-4.91
X5.85Y-5.01
T0
M30
