G04 #@! TF.GenerationSoftware,KiCad,Pcbnew,(5.1.5)-3*
G04 #@! TF.CreationDate,2020-05-03T14:35:54+01:00*
G04 #@! TF.ProjectId,RocketTracker,526f636b-6574-4547-9261-636b65722e6b,rev?*
G04 #@! TF.SameCoordinates,Original*
G04 #@! TF.FileFunction,Soldermask,Top*
G04 #@! TF.FilePolarity,Negative*
%FSLAX46Y46*%
G04 Gerber Fmt 4.6, Leading zero omitted, Abs format (unit mm)*
G04 Created by KiCad (PCBNEW (5.1.5)-3) date 2020-05-03 14:35:54*
%MOMM*%
%LPD*%
G04 APERTURE LIST*
%ADD10C,0.100000*%
G04 APERTURE END LIST*
D10*
G36*
X119251393Y-127273304D02*
G01*
X119488101Y-127371352D01*
X119488103Y-127371353D01*
X119701135Y-127513696D01*
X119882304Y-127694865D01*
X120024647Y-127907897D01*
X120024648Y-127907899D01*
X120122696Y-128144607D01*
X120172680Y-128395893D01*
X120172680Y-128652107D01*
X120122696Y-128903393D01*
X120041940Y-129098354D01*
X120024647Y-129140103D01*
X119882304Y-129353135D01*
X119701135Y-129534304D01*
X119488103Y-129676647D01*
X119488102Y-129676648D01*
X119488101Y-129676648D01*
X119251393Y-129774696D01*
X119000107Y-129824680D01*
X118743893Y-129824680D01*
X118492607Y-129774696D01*
X118255899Y-129676648D01*
X118255898Y-129676648D01*
X118255897Y-129676647D01*
X118042865Y-129534304D01*
X117861696Y-129353135D01*
X117719353Y-129140103D01*
X117702060Y-129098354D01*
X117621304Y-128903393D01*
X117571320Y-128652107D01*
X117571320Y-128395893D01*
X117621304Y-128144607D01*
X117719352Y-127907899D01*
X117719353Y-127907897D01*
X117861696Y-127694865D01*
X118042865Y-127513696D01*
X118255897Y-127371353D01*
X118255899Y-127371352D01*
X118492607Y-127273304D01*
X118743893Y-127223320D01*
X119000107Y-127223320D01*
X119251393Y-127273304D01*
G37*
G36*
X139730680Y-129824680D02*
G01*
X137129320Y-129824680D01*
X137129320Y-127223320D01*
X139730680Y-127223320D01*
X139730680Y-129824680D01*
G37*
G36*
X142619393Y-127273304D02*
G01*
X142856101Y-127371352D01*
X142856103Y-127371353D01*
X143069135Y-127513696D01*
X143250304Y-127694865D01*
X143392647Y-127907897D01*
X143392648Y-127907899D01*
X143490696Y-128144607D01*
X143540680Y-128395893D01*
X143540680Y-128652107D01*
X143490696Y-128903393D01*
X143409940Y-129098354D01*
X143392647Y-129140103D01*
X143250304Y-129353135D01*
X143069135Y-129534304D01*
X142856103Y-129676647D01*
X142856102Y-129676648D01*
X142856101Y-129676648D01*
X142619393Y-129774696D01*
X142368107Y-129824680D01*
X142111893Y-129824680D01*
X141860607Y-129774696D01*
X141623899Y-129676648D01*
X141623898Y-129676648D01*
X141623897Y-129676647D01*
X141410865Y-129534304D01*
X141229696Y-129353135D01*
X141087353Y-129140103D01*
X141070060Y-129098354D01*
X140989304Y-128903393D01*
X140939320Y-128652107D01*
X140939320Y-128395893D01*
X140989304Y-128144607D01*
X141087352Y-127907899D01*
X141087353Y-127907897D01*
X141229696Y-127694865D01*
X141410865Y-127513696D01*
X141623897Y-127371353D01*
X141623899Y-127371352D01*
X141860607Y-127273304D01*
X142111893Y-127223320D01*
X142368107Y-127223320D01*
X142619393Y-127273304D01*
G37*
G36*
X132872680Y-129824680D02*
G01*
X130271320Y-129824680D01*
X130271320Y-127223320D01*
X132872680Y-127223320D01*
X132872680Y-129824680D01*
G37*
G36*
X116362680Y-129824680D02*
G01*
X113761320Y-129824680D01*
X113761320Y-127223320D01*
X116362680Y-127223320D01*
X116362680Y-129824680D01*
G37*
G36*
X128141393Y-127273304D02*
G01*
X128378101Y-127371352D01*
X128378103Y-127371353D01*
X128591135Y-127513696D01*
X128772304Y-127694865D01*
X128914647Y-127907897D01*
X128914648Y-127907899D01*
X129012696Y-128144607D01*
X129062680Y-128395893D01*
X129062680Y-128652107D01*
X129012696Y-128903393D01*
X128931940Y-129098354D01*
X128914647Y-129140103D01*
X128772304Y-129353135D01*
X128591135Y-129534304D01*
X128378103Y-129676647D01*
X128378102Y-129676648D01*
X128378101Y-129676648D01*
X128141393Y-129774696D01*
X127890107Y-129824680D01*
X127633893Y-129824680D01*
X127382607Y-129774696D01*
X127145899Y-129676648D01*
X127145898Y-129676648D01*
X127145897Y-129676647D01*
X126932865Y-129534304D01*
X126751696Y-129353135D01*
X126609353Y-129140103D01*
X126592060Y-129098354D01*
X126511304Y-128903393D01*
X126461320Y-128652107D01*
X126461320Y-128395893D01*
X126511304Y-128144607D01*
X126609352Y-127907899D01*
X126609353Y-127907897D01*
X126751696Y-127694865D01*
X126932865Y-127513696D01*
X127145897Y-127371353D01*
X127145899Y-127371352D01*
X127382607Y-127273304D01*
X127633893Y-127223320D01*
X127890107Y-127223320D01*
X128141393Y-127273304D01*
G37*
G36*
X106793512Y-127627927D02*
G01*
X106942812Y-127657624D01*
X107106784Y-127725544D01*
X107254354Y-127824147D01*
X107379853Y-127949646D01*
X107478456Y-128097216D01*
X107546376Y-128261188D01*
X107581000Y-128435259D01*
X107581000Y-128612741D01*
X107546376Y-128786812D01*
X107478456Y-128950784D01*
X107379853Y-129098354D01*
X107254354Y-129223853D01*
X107106784Y-129322456D01*
X106942812Y-129390376D01*
X106793512Y-129420073D01*
X106768742Y-129425000D01*
X106591258Y-129425000D01*
X106566488Y-129420073D01*
X106417188Y-129390376D01*
X106253216Y-129322456D01*
X106105646Y-129223853D01*
X105980147Y-129098354D01*
X105881544Y-128950784D01*
X105813624Y-128786812D01*
X105779000Y-128612741D01*
X105779000Y-128435259D01*
X105813624Y-128261188D01*
X105881544Y-128097216D01*
X105980147Y-127949646D01*
X106105646Y-127824147D01*
X106253216Y-127725544D01*
X106417188Y-127657624D01*
X106566488Y-127627927D01*
X106591258Y-127623000D01*
X106768742Y-127623000D01*
X106793512Y-127627927D01*
G37*
G36*
X99961000Y-129425000D02*
G01*
X98159000Y-129425000D01*
X98159000Y-127623000D01*
X99961000Y-127623000D01*
X99961000Y-129425000D01*
G37*
G36*
X101713512Y-127627927D02*
G01*
X101862812Y-127657624D01*
X102026784Y-127725544D01*
X102174354Y-127824147D01*
X102299853Y-127949646D01*
X102398456Y-128097216D01*
X102466376Y-128261188D01*
X102501000Y-128435259D01*
X102501000Y-128612741D01*
X102466376Y-128786812D01*
X102398456Y-128950784D01*
X102299853Y-129098354D01*
X102174354Y-129223853D01*
X102026784Y-129322456D01*
X101862812Y-129390376D01*
X101713512Y-129420073D01*
X101688742Y-129425000D01*
X101511258Y-129425000D01*
X101486488Y-129420073D01*
X101337188Y-129390376D01*
X101173216Y-129322456D01*
X101025646Y-129223853D01*
X100900147Y-129098354D01*
X100801544Y-128950784D01*
X100733624Y-128786812D01*
X100699000Y-128612741D01*
X100699000Y-128435259D01*
X100733624Y-128261188D01*
X100801544Y-128097216D01*
X100900147Y-127949646D01*
X101025646Y-127824147D01*
X101173216Y-127725544D01*
X101337188Y-127657624D01*
X101486488Y-127627927D01*
X101511258Y-127623000D01*
X101688742Y-127623000D01*
X101713512Y-127627927D01*
G37*
G36*
X104253512Y-127627927D02*
G01*
X104402812Y-127657624D01*
X104566784Y-127725544D01*
X104714354Y-127824147D01*
X104839853Y-127949646D01*
X104938456Y-128097216D01*
X105006376Y-128261188D01*
X105041000Y-128435259D01*
X105041000Y-128612741D01*
X105006376Y-128786812D01*
X104938456Y-128950784D01*
X104839853Y-129098354D01*
X104714354Y-129223853D01*
X104566784Y-129322456D01*
X104402812Y-129390376D01*
X104253512Y-129420073D01*
X104228742Y-129425000D01*
X104051258Y-129425000D01*
X104026488Y-129420073D01*
X103877188Y-129390376D01*
X103713216Y-129322456D01*
X103565646Y-129223853D01*
X103440147Y-129098354D01*
X103341544Y-128950784D01*
X103273624Y-128786812D01*
X103239000Y-128612741D01*
X103239000Y-128435259D01*
X103273624Y-128261188D01*
X103341544Y-128097216D01*
X103440147Y-127949646D01*
X103565646Y-127824147D01*
X103713216Y-127725544D01*
X103877188Y-127657624D01*
X104026488Y-127627927D01*
X104051258Y-127623000D01*
X104228742Y-127623000D01*
X104253512Y-127627927D01*
G37*
G36*
X149608500Y-128272500D02*
G01*
X147571500Y-128272500D01*
X147571500Y-126235500D01*
X149608500Y-126235500D01*
X149608500Y-128272500D01*
G37*
G36*
X148821494Y-123721593D02*
G01*
X148887085Y-123734640D01*
X149072441Y-123811417D01*
X149239256Y-123922879D01*
X149381121Y-124064744D01*
X149492583Y-124231559D01*
X149566489Y-124409983D01*
X149569360Y-124416916D01*
X149601475Y-124578367D01*
X149608500Y-124613687D01*
X149608500Y-124814313D01*
X149569360Y-125011085D01*
X149492583Y-125196441D01*
X149381121Y-125363256D01*
X149239256Y-125505121D01*
X149072441Y-125616583D01*
X148887085Y-125693360D01*
X148821494Y-125706407D01*
X148690315Y-125732500D01*
X148489685Y-125732500D01*
X148358506Y-125706407D01*
X148292915Y-125693360D01*
X148107559Y-125616583D01*
X147940744Y-125505121D01*
X147798879Y-125363256D01*
X147687417Y-125196441D01*
X147610640Y-125011085D01*
X147571500Y-124814313D01*
X147571500Y-124613687D01*
X147578526Y-124578367D01*
X147610640Y-124416916D01*
X147613512Y-124409983D01*
X147687417Y-124231559D01*
X147798879Y-124064744D01*
X147940744Y-123922879D01*
X148107559Y-123811417D01*
X148292915Y-123734640D01*
X148358506Y-123721593D01*
X148489685Y-123695500D01*
X148690315Y-123695500D01*
X148821494Y-123721593D01*
G37*
G36*
X104612674Y-123205465D02*
G01*
X104650367Y-123216899D01*
X104685103Y-123235466D01*
X104715548Y-123260452D01*
X104740534Y-123290897D01*
X104759101Y-123325633D01*
X104770535Y-123363326D01*
X104775000Y-123408661D01*
X104775000Y-124495339D01*
X104770535Y-124540674D01*
X104759101Y-124578367D01*
X104740534Y-124613103D01*
X104715548Y-124643548D01*
X104685103Y-124668534D01*
X104650367Y-124687101D01*
X104612674Y-124698535D01*
X104567339Y-124703000D01*
X103730661Y-124703000D01*
X103685326Y-124698535D01*
X103647633Y-124687101D01*
X103612897Y-124668534D01*
X103582452Y-124643548D01*
X103557466Y-124613103D01*
X103538899Y-124578367D01*
X103527465Y-124540674D01*
X103523000Y-124495339D01*
X103523000Y-123408661D01*
X103527465Y-123363326D01*
X103538899Y-123325633D01*
X103557466Y-123290897D01*
X103582452Y-123260452D01*
X103612897Y-123235466D01*
X103647633Y-123216899D01*
X103685326Y-123205465D01*
X103730661Y-123201000D01*
X104567339Y-123201000D01*
X104612674Y-123205465D01*
G37*
G36*
X102562674Y-123205465D02*
G01*
X102600367Y-123216899D01*
X102635103Y-123235466D01*
X102665548Y-123260452D01*
X102690534Y-123290897D01*
X102709101Y-123325633D01*
X102720535Y-123363326D01*
X102725000Y-123408661D01*
X102725000Y-124495339D01*
X102720535Y-124540674D01*
X102709101Y-124578367D01*
X102690534Y-124613103D01*
X102665548Y-124643548D01*
X102635103Y-124668534D01*
X102600367Y-124687101D01*
X102562674Y-124698535D01*
X102517339Y-124703000D01*
X101680661Y-124703000D01*
X101635326Y-124698535D01*
X101597633Y-124687101D01*
X101562897Y-124668534D01*
X101532452Y-124643548D01*
X101507466Y-124613103D01*
X101488899Y-124578367D01*
X101477465Y-124540674D01*
X101473000Y-124495339D01*
X101473000Y-123408661D01*
X101477465Y-123363326D01*
X101488899Y-123325633D01*
X101507466Y-123290897D01*
X101532452Y-123260452D01*
X101562897Y-123235466D01*
X101597633Y-123216899D01*
X101635326Y-123205465D01*
X101680661Y-123201000D01*
X102517339Y-123201000D01*
X102562674Y-123205465D01*
G37*
G36*
X113364674Y-123330465D02*
G01*
X113402367Y-123341899D01*
X113437103Y-123360466D01*
X113467548Y-123385452D01*
X113492534Y-123415897D01*
X113511101Y-123450633D01*
X113522535Y-123488326D01*
X113527000Y-123533661D01*
X113527000Y-124370339D01*
X113522535Y-124415674D01*
X113511101Y-124453367D01*
X113492534Y-124488103D01*
X113467548Y-124518548D01*
X113437103Y-124543534D01*
X113402367Y-124562101D01*
X113364674Y-124573535D01*
X113319339Y-124578000D01*
X112232661Y-124578000D01*
X112187326Y-124573535D01*
X112149633Y-124562101D01*
X112114897Y-124543534D01*
X112084452Y-124518548D01*
X112059466Y-124488103D01*
X112040899Y-124453367D01*
X112029465Y-124415674D01*
X112025000Y-124370339D01*
X112025000Y-123533661D01*
X112029465Y-123488326D01*
X112040899Y-123450633D01*
X112059466Y-123415897D01*
X112084452Y-123385452D01*
X112114897Y-123360466D01*
X112149633Y-123341899D01*
X112187326Y-123330465D01*
X112232661Y-123326000D01*
X113319339Y-123326000D01*
X113364674Y-123330465D01*
G37*
G36*
X143816564Y-122433389D02*
G01*
X144006592Y-122512101D01*
X144007835Y-122512616D01*
X144111934Y-122582173D01*
X144179973Y-122627635D01*
X144326365Y-122774027D01*
X144441385Y-122946167D01*
X144520611Y-123137436D01*
X144561000Y-123340484D01*
X144561000Y-123547516D01*
X144520611Y-123750564D01*
X144449236Y-123922879D01*
X144441384Y-123941835D01*
X144326365Y-124113973D01*
X144179973Y-124260365D01*
X144007835Y-124375384D01*
X144007834Y-124375385D01*
X144007833Y-124375385D01*
X143816564Y-124454611D01*
X143613516Y-124495000D01*
X143406484Y-124495000D01*
X143203436Y-124454611D01*
X143012167Y-124375385D01*
X143012166Y-124375385D01*
X143012165Y-124375384D01*
X142840027Y-124260365D01*
X142693635Y-124113973D01*
X142578616Y-123941835D01*
X142570764Y-123922879D01*
X142499389Y-123750564D01*
X142459000Y-123547516D01*
X142459000Y-123340484D01*
X142499389Y-123137436D01*
X142578615Y-122946167D01*
X142693635Y-122774027D01*
X142840027Y-122627635D01*
X142908066Y-122582173D01*
X143012165Y-122512616D01*
X143013408Y-122512101D01*
X143203436Y-122433389D01*
X143406484Y-122393000D01*
X143613516Y-122393000D01*
X143816564Y-122433389D01*
G37*
G36*
X139481000Y-124495000D02*
G01*
X137379000Y-124495000D01*
X137379000Y-122393000D01*
X139481000Y-122393000D01*
X139481000Y-124495000D01*
G37*
G36*
X132115000Y-123733000D02*
G01*
X130013000Y-123733000D01*
X130013000Y-121631000D01*
X132115000Y-121631000D01*
X132115000Y-123733000D01*
G37*
G36*
X118907000Y-123733000D02*
G01*
X116805000Y-123733000D01*
X116805000Y-121631000D01*
X118907000Y-121631000D01*
X118907000Y-123733000D01*
G37*
G36*
X126572674Y-122314465D02*
G01*
X126610367Y-122325899D01*
X126645103Y-122344466D01*
X126675548Y-122369452D01*
X126700534Y-122399897D01*
X126719101Y-122434633D01*
X126730535Y-122472326D01*
X126735000Y-122517661D01*
X126735000Y-123354339D01*
X126730535Y-123399674D01*
X126719101Y-123437367D01*
X126700534Y-123472103D01*
X126675548Y-123502548D01*
X126645103Y-123527534D01*
X126610367Y-123546101D01*
X126572674Y-123557535D01*
X126527339Y-123562000D01*
X125440661Y-123562000D01*
X125395326Y-123557535D01*
X125357633Y-123546101D01*
X125322897Y-123527534D01*
X125292452Y-123502548D01*
X125267466Y-123472103D01*
X125248899Y-123437367D01*
X125237465Y-123399674D01*
X125233000Y-123354339D01*
X125233000Y-122517661D01*
X125237465Y-122472326D01*
X125248899Y-122434633D01*
X125267466Y-122399897D01*
X125292452Y-122369452D01*
X125322897Y-122344466D01*
X125357633Y-122325899D01*
X125395326Y-122314465D01*
X125440661Y-122310000D01*
X126527339Y-122310000D01*
X126572674Y-122314465D01*
G37*
G36*
X148821494Y-121181593D02*
G01*
X148887085Y-121194640D01*
X149072441Y-121271417D01*
X149239256Y-121382879D01*
X149381121Y-121524744D01*
X149492583Y-121691559D01*
X149492584Y-121691561D01*
X149569360Y-121876916D01*
X149608500Y-122073685D01*
X149608500Y-122274315D01*
X149594546Y-122344466D01*
X149569360Y-122471085D01*
X149492583Y-122656441D01*
X149381121Y-122823256D01*
X149239256Y-122965121D01*
X149072441Y-123076583D01*
X148887085Y-123153360D01*
X148821494Y-123166407D01*
X148690315Y-123192500D01*
X148489685Y-123192500D01*
X148358506Y-123166407D01*
X148292915Y-123153360D01*
X148107559Y-123076583D01*
X147940744Y-122965121D01*
X147798879Y-122823256D01*
X147687417Y-122656441D01*
X147610640Y-122471085D01*
X147585454Y-122344466D01*
X147571500Y-122274315D01*
X147571500Y-122073685D01*
X147610640Y-121876916D01*
X147687416Y-121691561D01*
X147687417Y-121691559D01*
X147798879Y-121524744D01*
X147940744Y-121382879D01*
X148107559Y-121271417D01*
X148292915Y-121194640D01*
X148358506Y-121181593D01*
X148489685Y-121155500D01*
X148690315Y-121155500D01*
X148821494Y-121181593D01*
G37*
G36*
X113364674Y-121280465D02*
G01*
X113402367Y-121291899D01*
X113437103Y-121310466D01*
X113467548Y-121335452D01*
X113492534Y-121365897D01*
X113511101Y-121400633D01*
X113522535Y-121438326D01*
X113527000Y-121483661D01*
X113527000Y-122320339D01*
X113522535Y-122365674D01*
X113511101Y-122403367D01*
X113492534Y-122438103D01*
X113467548Y-122468548D01*
X113437103Y-122493534D01*
X113402367Y-122512101D01*
X113364674Y-122523535D01*
X113319339Y-122528000D01*
X112232661Y-122528000D01*
X112187326Y-122523535D01*
X112149633Y-122512101D01*
X112114897Y-122493534D01*
X112084452Y-122468548D01*
X112059466Y-122438103D01*
X112040899Y-122403367D01*
X112029465Y-122365674D01*
X112025000Y-122320339D01*
X112025000Y-121483661D01*
X112029465Y-121438326D01*
X112040899Y-121400633D01*
X112059466Y-121365897D01*
X112084452Y-121335452D01*
X112114897Y-121310466D01*
X112149633Y-121291899D01*
X112187326Y-121280465D01*
X112232661Y-121276000D01*
X113319339Y-121276000D01*
X113364674Y-121280465D01*
G37*
G36*
X126572674Y-120264465D02*
G01*
X126610367Y-120275899D01*
X126645103Y-120294466D01*
X126675548Y-120319452D01*
X126700534Y-120349897D01*
X126719101Y-120384633D01*
X126730535Y-120422326D01*
X126735000Y-120467661D01*
X126735000Y-121304339D01*
X126730535Y-121349674D01*
X126719101Y-121387367D01*
X126700534Y-121422103D01*
X126675548Y-121452548D01*
X126645103Y-121477534D01*
X126610367Y-121496101D01*
X126572674Y-121507535D01*
X126527339Y-121512000D01*
X125440661Y-121512000D01*
X125395326Y-121507535D01*
X125357633Y-121496101D01*
X125322897Y-121477534D01*
X125292452Y-121452548D01*
X125267466Y-121422103D01*
X125248899Y-121387367D01*
X125237465Y-121349674D01*
X125233000Y-121304339D01*
X125233000Y-120467661D01*
X125237465Y-120422326D01*
X125248899Y-120384633D01*
X125267466Y-120349897D01*
X125292452Y-120319452D01*
X125322897Y-120294466D01*
X125357633Y-120275899D01*
X125395326Y-120264465D01*
X125440661Y-120260000D01*
X126527339Y-120260000D01*
X126572674Y-120264465D01*
G37*
G36*
X131370564Y-119131389D02*
G01*
X131561833Y-119210615D01*
X131561835Y-119210616D01*
X131733973Y-119325635D01*
X131880365Y-119472027D01*
X131995385Y-119644167D01*
X132074611Y-119835436D01*
X132115000Y-120038484D01*
X132115000Y-120245516D01*
X132074611Y-120448564D01*
X132039979Y-120532173D01*
X131995384Y-120639835D01*
X131880365Y-120811973D01*
X131733973Y-120958365D01*
X131561835Y-121073384D01*
X131561834Y-121073385D01*
X131561833Y-121073385D01*
X131370564Y-121152611D01*
X131167516Y-121193000D01*
X130960484Y-121193000D01*
X130757436Y-121152611D01*
X130566167Y-121073385D01*
X130566166Y-121073385D01*
X130566165Y-121073384D01*
X130394027Y-120958365D01*
X130247635Y-120811973D01*
X130132616Y-120639835D01*
X130088021Y-120532173D01*
X130053389Y-120448564D01*
X130013000Y-120245516D01*
X130013000Y-120038484D01*
X130053389Y-119835436D01*
X130132615Y-119644167D01*
X130247635Y-119472027D01*
X130394027Y-119325635D01*
X130566165Y-119210616D01*
X130566167Y-119210615D01*
X130757436Y-119131389D01*
X130960484Y-119091000D01*
X131167516Y-119091000D01*
X131370564Y-119131389D01*
G37*
G36*
X118162564Y-119131389D02*
G01*
X118353833Y-119210615D01*
X118353835Y-119210616D01*
X118525973Y-119325635D01*
X118672365Y-119472027D01*
X118787385Y-119644167D01*
X118866611Y-119835436D01*
X118907000Y-120038484D01*
X118907000Y-120245516D01*
X118866611Y-120448564D01*
X118831979Y-120532173D01*
X118787384Y-120639835D01*
X118672365Y-120811973D01*
X118525973Y-120958365D01*
X118353835Y-121073384D01*
X118353834Y-121073385D01*
X118353833Y-121073385D01*
X118162564Y-121152611D01*
X117959516Y-121193000D01*
X117752484Y-121193000D01*
X117549436Y-121152611D01*
X117358167Y-121073385D01*
X117358166Y-121073385D01*
X117358165Y-121073384D01*
X117186027Y-120958365D01*
X117039635Y-120811973D01*
X116924616Y-120639835D01*
X116880021Y-120532173D01*
X116845389Y-120448564D01*
X116805000Y-120245516D01*
X116805000Y-120038484D01*
X116845389Y-119835436D01*
X116924615Y-119644167D01*
X117039635Y-119472027D01*
X117186027Y-119325635D01*
X117358165Y-119210616D01*
X117358167Y-119210615D01*
X117549436Y-119131389D01*
X117752484Y-119091000D01*
X117959516Y-119091000D01*
X118162564Y-119131389D01*
G37*
G36*
X126572674Y-117742465D02*
G01*
X126610367Y-117753899D01*
X126645103Y-117772466D01*
X126675548Y-117797452D01*
X126700534Y-117827897D01*
X126719101Y-117862633D01*
X126730535Y-117900326D01*
X126735000Y-117945661D01*
X126735000Y-118782339D01*
X126730535Y-118827674D01*
X126719101Y-118865367D01*
X126700534Y-118900103D01*
X126675548Y-118930548D01*
X126645103Y-118955534D01*
X126610367Y-118974101D01*
X126572674Y-118985535D01*
X126527339Y-118990000D01*
X125440661Y-118990000D01*
X125395326Y-118985535D01*
X125357633Y-118974101D01*
X125322897Y-118955534D01*
X125292452Y-118930548D01*
X125267466Y-118900103D01*
X125248899Y-118865367D01*
X125237465Y-118827674D01*
X125233000Y-118782339D01*
X125233000Y-117945661D01*
X125237465Y-117900326D01*
X125248899Y-117862633D01*
X125267466Y-117827897D01*
X125292452Y-117797452D01*
X125322897Y-117772466D01*
X125357633Y-117753899D01*
X125395326Y-117742465D01*
X125440661Y-117738000D01*
X126527339Y-117738000D01*
X126572674Y-117742465D01*
G37*
G36*
X113364674Y-117742465D02*
G01*
X113402367Y-117753899D01*
X113437103Y-117772466D01*
X113467548Y-117797452D01*
X113492534Y-117827897D01*
X113511101Y-117862633D01*
X113522535Y-117900326D01*
X113527000Y-117945661D01*
X113527000Y-118782339D01*
X113522535Y-118827674D01*
X113511101Y-118865367D01*
X113492534Y-118900103D01*
X113467548Y-118930548D01*
X113437103Y-118955534D01*
X113402367Y-118974101D01*
X113364674Y-118985535D01*
X113319339Y-118990000D01*
X112232661Y-118990000D01*
X112187326Y-118985535D01*
X112149633Y-118974101D01*
X112114897Y-118955534D01*
X112084452Y-118930548D01*
X112059466Y-118900103D01*
X112040899Y-118865367D01*
X112029465Y-118827674D01*
X112025000Y-118782339D01*
X112025000Y-117945661D01*
X112029465Y-117900326D01*
X112040899Y-117862633D01*
X112059466Y-117827897D01*
X112084452Y-117797452D01*
X112114897Y-117772466D01*
X112149633Y-117753899D01*
X112187326Y-117742465D01*
X112232661Y-117738000D01*
X113319339Y-117738000D01*
X113364674Y-117742465D01*
G37*
G36*
X131370564Y-116591389D02*
G01*
X131555102Y-116667827D01*
X131561835Y-116670616D01*
X131733973Y-116785635D01*
X131880365Y-116932027D01*
X131995385Y-117104167D01*
X132074611Y-117295436D01*
X132115000Y-117498484D01*
X132115000Y-117705516D01*
X132074611Y-117908564D01*
X132054517Y-117957075D01*
X131995384Y-118099835D01*
X131880365Y-118271973D01*
X131733973Y-118418365D01*
X131561835Y-118533384D01*
X131561834Y-118533385D01*
X131561833Y-118533385D01*
X131370564Y-118612611D01*
X131167516Y-118653000D01*
X130960484Y-118653000D01*
X130757436Y-118612611D01*
X130566167Y-118533385D01*
X130566166Y-118533385D01*
X130566165Y-118533384D01*
X130394027Y-118418365D01*
X130247635Y-118271973D01*
X130132616Y-118099835D01*
X130073483Y-117957075D01*
X130053389Y-117908564D01*
X130013000Y-117705516D01*
X130013000Y-117498484D01*
X130053389Y-117295436D01*
X130132615Y-117104167D01*
X130247635Y-116932027D01*
X130394027Y-116785635D01*
X130566165Y-116670616D01*
X130572898Y-116667827D01*
X130757436Y-116591389D01*
X130960484Y-116551000D01*
X131167516Y-116551000D01*
X131370564Y-116591389D01*
G37*
G36*
X118162564Y-116591389D02*
G01*
X118347102Y-116667827D01*
X118353835Y-116670616D01*
X118525973Y-116785635D01*
X118672365Y-116932027D01*
X118787385Y-117104167D01*
X118866611Y-117295436D01*
X118907000Y-117498484D01*
X118907000Y-117705516D01*
X118866611Y-117908564D01*
X118846517Y-117957075D01*
X118787384Y-118099835D01*
X118672365Y-118271973D01*
X118525973Y-118418365D01*
X118353835Y-118533384D01*
X118353834Y-118533385D01*
X118353833Y-118533385D01*
X118162564Y-118612611D01*
X117959516Y-118653000D01*
X117752484Y-118653000D01*
X117549436Y-118612611D01*
X117358167Y-118533385D01*
X117358166Y-118533385D01*
X117358165Y-118533384D01*
X117186027Y-118418365D01*
X117039635Y-118271973D01*
X116924616Y-118099835D01*
X116865483Y-117957075D01*
X116845389Y-117908564D01*
X116805000Y-117705516D01*
X116805000Y-117498484D01*
X116845389Y-117295436D01*
X116924615Y-117104167D01*
X117039635Y-116932027D01*
X117186027Y-116785635D01*
X117358165Y-116670616D01*
X117364898Y-116667827D01*
X117549436Y-116591389D01*
X117752484Y-116551000D01*
X117959516Y-116551000D01*
X118162564Y-116591389D01*
G37*
G36*
X126572674Y-115692465D02*
G01*
X126610367Y-115703899D01*
X126645103Y-115722466D01*
X126675548Y-115747452D01*
X126700534Y-115777897D01*
X126719101Y-115812633D01*
X126730535Y-115850326D01*
X126735000Y-115895661D01*
X126735000Y-116732339D01*
X126730535Y-116777674D01*
X126719101Y-116815367D01*
X126700534Y-116850103D01*
X126675548Y-116880548D01*
X126645103Y-116905534D01*
X126610367Y-116924101D01*
X126572674Y-116935535D01*
X126527339Y-116940000D01*
X125440661Y-116940000D01*
X125395326Y-116935535D01*
X125357633Y-116924101D01*
X125322897Y-116905534D01*
X125292452Y-116880548D01*
X125267466Y-116850103D01*
X125248899Y-116815367D01*
X125237465Y-116777674D01*
X125233000Y-116732339D01*
X125233000Y-115895661D01*
X125237465Y-115850326D01*
X125248899Y-115812633D01*
X125267466Y-115777897D01*
X125292452Y-115747452D01*
X125322897Y-115722466D01*
X125357633Y-115703899D01*
X125395326Y-115692465D01*
X125440661Y-115688000D01*
X126527339Y-115688000D01*
X126572674Y-115692465D01*
G37*
G36*
X113364674Y-115692465D02*
G01*
X113402367Y-115703899D01*
X113437103Y-115722466D01*
X113467548Y-115747452D01*
X113492534Y-115777897D01*
X113511101Y-115812633D01*
X113522535Y-115850326D01*
X113527000Y-115895661D01*
X113527000Y-116732339D01*
X113522535Y-116777674D01*
X113511101Y-116815367D01*
X113492534Y-116850103D01*
X113467548Y-116880548D01*
X113437103Y-116905534D01*
X113402367Y-116924101D01*
X113364674Y-116935535D01*
X113319339Y-116940000D01*
X112232661Y-116940000D01*
X112187326Y-116935535D01*
X112149633Y-116924101D01*
X112114897Y-116905534D01*
X112084452Y-116880548D01*
X112059466Y-116850103D01*
X112040899Y-116815367D01*
X112029465Y-116777674D01*
X112025000Y-116732339D01*
X112025000Y-115895661D01*
X112029465Y-115850326D01*
X112040899Y-115812633D01*
X112059466Y-115777897D01*
X112084452Y-115747452D01*
X112114897Y-115722466D01*
X112149633Y-115703899D01*
X112187326Y-115692465D01*
X112232661Y-115688000D01*
X113319339Y-115688000D01*
X113364674Y-115692465D01*
G37*
G36*
X99173512Y-113149927D02*
G01*
X99322812Y-113179624D01*
X99486784Y-113247544D01*
X99634354Y-113346147D01*
X99759853Y-113471646D01*
X99858456Y-113619216D01*
X99926376Y-113783188D01*
X99956073Y-113932488D01*
X99961000Y-113957258D01*
X99961000Y-114134742D01*
X99956073Y-114159512D01*
X99926376Y-114308812D01*
X99858456Y-114472784D01*
X99759853Y-114620354D01*
X99634354Y-114745853D01*
X99486784Y-114844456D01*
X99322812Y-114912376D01*
X99173512Y-114942073D01*
X99148742Y-114947000D01*
X98971258Y-114947000D01*
X98946488Y-114942073D01*
X98797188Y-114912376D01*
X98633216Y-114844456D01*
X98485646Y-114745853D01*
X98360147Y-114620354D01*
X98261544Y-114472784D01*
X98193624Y-114308812D01*
X98163927Y-114159512D01*
X98159000Y-114134742D01*
X98159000Y-113957258D01*
X98163927Y-113932488D01*
X98193624Y-113783188D01*
X98261544Y-113619216D01*
X98360147Y-113471646D01*
X98485646Y-113346147D01*
X98633216Y-113247544D01*
X98797188Y-113179624D01*
X98946488Y-113149927D01*
X98971258Y-113145000D01*
X99148742Y-113145000D01*
X99173512Y-113149927D01*
G37*
G36*
X146941000Y-114135000D02*
G01*
X145239000Y-114135000D01*
X145239000Y-112433000D01*
X146941000Y-112433000D01*
X146941000Y-114135000D01*
G37*
G36*
X139281000Y-114135000D02*
G01*
X137579000Y-114135000D01*
X137579000Y-112433000D01*
X139281000Y-112433000D01*
X139281000Y-114135000D01*
G37*
G36*
X141178228Y-112465703D02*
G01*
X141333100Y-112529853D01*
X141472481Y-112622985D01*
X141591015Y-112741519D01*
X141684147Y-112880900D01*
X141748297Y-113035772D01*
X141781000Y-113200184D01*
X141781000Y-113367816D01*
X141748297Y-113532228D01*
X141684147Y-113687100D01*
X141591015Y-113826481D01*
X141472481Y-113945015D01*
X141333100Y-114038147D01*
X141178228Y-114102297D01*
X141013816Y-114135000D01*
X140846184Y-114135000D01*
X140681772Y-114102297D01*
X140526900Y-114038147D01*
X140387519Y-113945015D01*
X140268985Y-113826481D01*
X140175853Y-113687100D01*
X140111703Y-113532228D01*
X140079000Y-113367816D01*
X140079000Y-113200184D01*
X140111703Y-113035772D01*
X140175853Y-112880900D01*
X140268985Y-112741519D01*
X140387519Y-112622985D01*
X140526900Y-112529853D01*
X140681772Y-112465703D01*
X140846184Y-112433000D01*
X141013816Y-112433000D01*
X141178228Y-112465703D01*
G37*
G36*
X148838228Y-112465703D02*
G01*
X148993100Y-112529853D01*
X149132481Y-112622985D01*
X149251015Y-112741519D01*
X149344147Y-112880900D01*
X149408297Y-113035772D01*
X149441000Y-113200184D01*
X149441000Y-113367816D01*
X149408297Y-113532228D01*
X149344147Y-113687100D01*
X149251015Y-113826481D01*
X149132481Y-113945015D01*
X148993100Y-114038147D01*
X148838228Y-114102297D01*
X148673816Y-114135000D01*
X148506184Y-114135000D01*
X148341772Y-114102297D01*
X148186900Y-114038147D01*
X148047519Y-113945015D01*
X147928985Y-113826481D01*
X147835853Y-113687100D01*
X147771703Y-113532228D01*
X147739000Y-113367816D01*
X147739000Y-113200184D01*
X147771703Y-113035772D01*
X147835853Y-112880900D01*
X147928985Y-112741519D01*
X148047519Y-112622985D01*
X148186900Y-112529853D01*
X148341772Y-112465703D01*
X148506184Y-112433000D01*
X148673816Y-112433000D01*
X148838228Y-112465703D01*
G37*
G36*
X99173512Y-110609927D02*
G01*
X99322812Y-110639624D01*
X99486784Y-110707544D01*
X99634354Y-110806147D01*
X99759853Y-110931646D01*
X99858456Y-111079216D01*
X99926376Y-111243188D01*
X99961000Y-111417259D01*
X99961000Y-111594741D01*
X99926376Y-111768812D01*
X99858456Y-111932784D01*
X99759853Y-112080354D01*
X99634354Y-112205853D01*
X99486784Y-112304456D01*
X99322812Y-112372376D01*
X99173512Y-112402073D01*
X99148742Y-112407000D01*
X98971258Y-112407000D01*
X98946488Y-112402073D01*
X98797188Y-112372376D01*
X98633216Y-112304456D01*
X98485646Y-112205853D01*
X98360147Y-112080354D01*
X98261544Y-111932784D01*
X98193624Y-111768812D01*
X98159000Y-111594741D01*
X98159000Y-111417259D01*
X98193624Y-111243188D01*
X98261544Y-111079216D01*
X98360147Y-110931646D01*
X98485646Y-110806147D01*
X98633216Y-110707544D01*
X98797188Y-110639624D01*
X98946488Y-110609927D01*
X98971258Y-110605000D01*
X99148742Y-110605000D01*
X99173512Y-110609927D01*
G37*
G36*
X110311000Y-111691000D02*
G01*
X107709000Y-111691000D01*
X107709000Y-110589000D01*
X110311000Y-110589000D01*
X110311000Y-111691000D01*
G37*
G36*
X128511000Y-111691000D02*
G01*
X125909000Y-111691000D01*
X125909000Y-110589000D01*
X128511000Y-110589000D01*
X128511000Y-111691000D01*
G37*
G36*
X99173512Y-108069927D02*
G01*
X99322812Y-108099624D01*
X99486784Y-108167544D01*
X99634354Y-108266147D01*
X99759853Y-108391646D01*
X99858456Y-108539216D01*
X99926376Y-108703188D01*
X99961000Y-108877259D01*
X99961000Y-109054741D01*
X99926376Y-109228812D01*
X99858456Y-109392784D01*
X99759853Y-109540354D01*
X99634354Y-109665853D01*
X99486784Y-109764456D01*
X99322812Y-109832376D01*
X99173512Y-109862073D01*
X99148742Y-109867000D01*
X98971258Y-109867000D01*
X98946488Y-109862073D01*
X98797188Y-109832376D01*
X98633216Y-109764456D01*
X98485646Y-109665853D01*
X98360147Y-109540354D01*
X98261544Y-109392784D01*
X98193624Y-109228812D01*
X98159000Y-109054741D01*
X98159000Y-108877259D01*
X98193624Y-108703188D01*
X98261544Y-108539216D01*
X98360147Y-108391646D01*
X98485646Y-108266147D01*
X98633216Y-108167544D01*
X98797188Y-108099624D01*
X98946488Y-108069927D01*
X98971258Y-108065000D01*
X99148742Y-108065000D01*
X99173512Y-108069927D01*
G37*
G36*
X110311000Y-109691000D02*
G01*
X107709000Y-109691000D01*
X107709000Y-108589000D01*
X110311000Y-108589000D01*
X110311000Y-109691000D01*
G37*
G36*
X128511000Y-109691000D02*
G01*
X125909000Y-109691000D01*
X125909000Y-108589000D01*
X128511000Y-108589000D01*
X128511000Y-109691000D01*
G37*
G36*
X128511000Y-107691000D02*
G01*
X125909000Y-107691000D01*
X125909000Y-106589000D01*
X128511000Y-106589000D01*
X128511000Y-107691000D01*
G37*
G36*
X110311000Y-107691000D02*
G01*
X107709000Y-107691000D01*
X107709000Y-106589000D01*
X110311000Y-106589000D01*
X110311000Y-107691000D01*
G37*
G36*
X99961000Y-107327000D02*
G01*
X98159000Y-107327000D01*
X98159000Y-105525000D01*
X99961000Y-105525000D01*
X99961000Y-107327000D01*
G37*
G36*
X131144674Y-104543465D02*
G01*
X131182367Y-104554899D01*
X131217103Y-104573466D01*
X131247548Y-104598452D01*
X131272534Y-104628897D01*
X131291101Y-104663633D01*
X131302535Y-104701326D01*
X131307000Y-104746661D01*
X131307000Y-105583339D01*
X131302535Y-105628674D01*
X131291101Y-105666367D01*
X131272534Y-105701103D01*
X131247548Y-105731548D01*
X131217103Y-105756534D01*
X131182367Y-105775101D01*
X131144674Y-105786535D01*
X131099339Y-105791000D01*
X130012661Y-105791000D01*
X129967326Y-105786535D01*
X129929633Y-105775101D01*
X129894897Y-105756534D01*
X129864452Y-105731548D01*
X129839466Y-105701103D01*
X129820899Y-105666367D01*
X129809465Y-105628674D01*
X129805000Y-105583339D01*
X129805000Y-104746661D01*
X129809465Y-104701326D01*
X129820899Y-104663633D01*
X129839466Y-104628897D01*
X129864452Y-104598452D01*
X129894897Y-104573466D01*
X129929633Y-104554899D01*
X129967326Y-104543465D01*
X130012661Y-104539000D01*
X131099339Y-104539000D01*
X131144674Y-104543465D01*
G37*
G36*
X110311000Y-105691000D02*
G01*
X107709000Y-105691000D01*
X107709000Y-104589000D01*
X110311000Y-104589000D01*
X110311000Y-105691000D01*
G37*
G36*
X128511000Y-105691000D02*
G01*
X125909000Y-105691000D01*
X125909000Y-104589000D01*
X128511000Y-104589000D01*
X128511000Y-105691000D01*
G37*
G36*
X136256915Y-103347334D02*
G01*
X136365491Y-103380271D01*
X136365494Y-103380272D01*
X136401600Y-103399571D01*
X136465556Y-103433756D01*
X136553264Y-103505736D01*
X136625244Y-103593443D01*
X136656063Y-103651103D01*
X136678728Y-103693505D01*
X136678729Y-103693508D01*
X136711666Y-103802084D01*
X136720000Y-103886702D01*
X136720000Y-104393297D01*
X136711666Y-104477916D01*
X136679252Y-104584767D01*
X136678728Y-104586495D01*
X136668761Y-104605141D01*
X136625244Y-104686557D01*
X136553264Y-104774264D01*
X136465557Y-104846244D01*
X136401601Y-104880429D01*
X136365495Y-104899728D01*
X136365492Y-104899729D01*
X136256916Y-104932666D01*
X136144000Y-104943787D01*
X136031085Y-104932666D01*
X135922509Y-104899729D01*
X135922506Y-104899728D01*
X135886400Y-104880429D01*
X135822444Y-104846244D01*
X135734737Y-104774264D01*
X135662757Y-104686557D01*
X135619239Y-104605141D01*
X135605625Y-104584766D01*
X135588298Y-104567439D01*
X135567924Y-104553826D01*
X135545285Y-104544448D01*
X135521252Y-104539668D01*
X135496748Y-104539668D01*
X135472715Y-104544448D01*
X135450076Y-104553826D01*
X135429701Y-104567440D01*
X135412374Y-104584767D01*
X135398761Y-104605141D01*
X135355244Y-104686557D01*
X135283264Y-104774264D01*
X135195557Y-104846244D01*
X135131601Y-104880429D01*
X135095495Y-104899728D01*
X135095492Y-104899729D01*
X134986916Y-104932666D01*
X134874000Y-104943787D01*
X134761085Y-104932666D01*
X134652509Y-104899729D01*
X134652506Y-104899728D01*
X134616400Y-104880429D01*
X134552444Y-104846244D01*
X134464737Y-104774264D01*
X134401622Y-104697359D01*
X134384297Y-104680034D01*
X134363923Y-104666420D01*
X134341284Y-104657043D01*
X134317250Y-104652263D01*
X134292746Y-104652263D01*
X134268713Y-104657044D01*
X134246074Y-104666421D01*
X134225700Y-104680035D01*
X134208373Y-104697362D01*
X134194759Y-104717736D01*
X134185382Y-104740375D01*
X134180000Y-104776660D01*
X134180000Y-104941000D01*
X133028000Y-104941000D01*
X133028000Y-103339000D01*
X134180000Y-103339000D01*
X134180000Y-103503341D01*
X134182402Y-103527727D01*
X134189515Y-103551176D01*
X134201066Y-103572787D01*
X134216611Y-103591729D01*
X134235553Y-103607274D01*
X134257164Y-103618825D01*
X134280613Y-103625938D01*
X134304999Y-103628340D01*
X134329385Y-103625938D01*
X134352834Y-103618825D01*
X134374445Y-103607274D01*
X134393387Y-103591729D01*
X134401608Y-103582657D01*
X134464736Y-103505736D01*
X134552443Y-103433756D01*
X134616399Y-103399571D01*
X134652505Y-103380272D01*
X134652508Y-103380271D01*
X134761084Y-103347334D01*
X134874000Y-103336213D01*
X134986915Y-103347334D01*
X135095491Y-103380271D01*
X135095494Y-103380272D01*
X135131600Y-103399571D01*
X135195556Y-103433756D01*
X135283264Y-103505736D01*
X135355244Y-103593443D01*
X135386063Y-103651103D01*
X135398761Y-103674859D01*
X135412375Y-103695234D01*
X135429702Y-103712561D01*
X135450076Y-103726174D01*
X135472715Y-103735552D01*
X135496748Y-103740332D01*
X135521252Y-103740332D01*
X135545285Y-103735552D01*
X135567924Y-103726174D01*
X135588299Y-103712560D01*
X135605626Y-103695233D01*
X135619239Y-103674860D01*
X135662756Y-103593444D01*
X135734736Y-103505736D01*
X135822443Y-103433756D01*
X135886399Y-103399571D01*
X135922505Y-103380272D01*
X135922508Y-103380271D01*
X136031084Y-103347334D01*
X136144000Y-103336213D01*
X136256915Y-103347334D01*
G37*
G36*
X143876915Y-103347334D02*
G01*
X143985491Y-103380271D01*
X143985494Y-103380272D01*
X144021600Y-103399571D01*
X144085556Y-103433756D01*
X144173264Y-103505736D01*
X144245244Y-103593443D01*
X144276063Y-103651103D01*
X144298728Y-103693505D01*
X144298729Y-103693508D01*
X144331666Y-103802084D01*
X144340000Y-103886702D01*
X144340000Y-104393297D01*
X144331666Y-104477916D01*
X144299252Y-104584767D01*
X144298728Y-104586495D01*
X144288761Y-104605141D01*
X144245244Y-104686557D01*
X144173264Y-104774264D01*
X144085557Y-104846244D01*
X144021601Y-104880429D01*
X143985495Y-104899728D01*
X143985492Y-104899729D01*
X143876916Y-104932666D01*
X143764000Y-104943787D01*
X143651085Y-104932666D01*
X143542509Y-104899729D01*
X143542506Y-104899728D01*
X143506400Y-104880429D01*
X143442444Y-104846244D01*
X143354737Y-104774264D01*
X143282757Y-104686557D01*
X143239239Y-104605141D01*
X143225625Y-104584766D01*
X143208298Y-104567439D01*
X143187924Y-104553826D01*
X143165285Y-104544448D01*
X143141252Y-104539668D01*
X143116748Y-104539668D01*
X143092715Y-104544448D01*
X143070076Y-104553826D01*
X143049701Y-104567440D01*
X143032374Y-104584767D01*
X143018761Y-104605141D01*
X142975244Y-104686557D01*
X142903264Y-104774264D01*
X142815557Y-104846244D01*
X142751601Y-104880429D01*
X142715495Y-104899728D01*
X142715492Y-104899729D01*
X142606916Y-104932666D01*
X142494000Y-104943787D01*
X142381085Y-104932666D01*
X142272509Y-104899729D01*
X142272506Y-104899728D01*
X142236400Y-104880429D01*
X142172444Y-104846244D01*
X142084737Y-104774264D01*
X142021622Y-104697359D01*
X142004297Y-104680034D01*
X141983923Y-104666420D01*
X141961284Y-104657043D01*
X141937250Y-104652263D01*
X141912746Y-104652263D01*
X141888713Y-104657044D01*
X141866074Y-104666421D01*
X141845700Y-104680035D01*
X141828373Y-104697362D01*
X141814759Y-104717736D01*
X141805382Y-104740375D01*
X141800000Y-104776660D01*
X141800000Y-104941000D01*
X140648000Y-104941000D01*
X140648000Y-103339000D01*
X141800000Y-103339000D01*
X141800000Y-103503341D01*
X141802402Y-103527727D01*
X141809515Y-103551176D01*
X141821066Y-103572787D01*
X141836611Y-103591729D01*
X141855553Y-103607274D01*
X141877164Y-103618825D01*
X141900613Y-103625938D01*
X141924999Y-103628340D01*
X141949385Y-103625938D01*
X141972834Y-103618825D01*
X141994445Y-103607274D01*
X142013387Y-103591729D01*
X142021608Y-103582657D01*
X142084736Y-103505736D01*
X142172443Y-103433756D01*
X142236399Y-103399571D01*
X142272505Y-103380272D01*
X142272508Y-103380271D01*
X142381084Y-103347334D01*
X142494000Y-103336213D01*
X142606915Y-103347334D01*
X142715491Y-103380271D01*
X142715494Y-103380272D01*
X142751600Y-103399571D01*
X142815556Y-103433756D01*
X142903264Y-103505736D01*
X142975244Y-103593443D01*
X143006063Y-103651103D01*
X143018761Y-103674859D01*
X143032375Y-103695234D01*
X143049702Y-103712561D01*
X143070076Y-103726174D01*
X143092715Y-103735552D01*
X143116748Y-103740332D01*
X143141252Y-103740332D01*
X143165285Y-103735552D01*
X143187924Y-103726174D01*
X143208299Y-103712560D01*
X143225626Y-103695233D01*
X143239239Y-103674860D01*
X143282756Y-103593444D01*
X143354736Y-103505736D01*
X143442443Y-103433756D01*
X143506399Y-103399571D01*
X143542505Y-103380272D01*
X143542508Y-103380271D01*
X143651084Y-103347334D01*
X143764000Y-103336213D01*
X143876915Y-103347334D01*
G37*
G36*
X151269000Y-104533000D02*
G01*
X149467000Y-104533000D01*
X149467000Y-102731000D01*
X151269000Y-102731000D01*
X151269000Y-104533000D01*
G37*
G36*
X131144674Y-102493465D02*
G01*
X131182367Y-102504899D01*
X131217103Y-102523466D01*
X131247548Y-102548452D01*
X131272534Y-102578897D01*
X131291101Y-102613633D01*
X131302535Y-102651326D01*
X131307000Y-102696661D01*
X131307000Y-103533339D01*
X131302535Y-103578674D01*
X131291101Y-103616367D01*
X131272534Y-103651103D01*
X131247548Y-103681548D01*
X131217103Y-103706534D01*
X131182367Y-103725101D01*
X131144674Y-103736535D01*
X131099339Y-103741000D01*
X130012661Y-103741000D01*
X129967326Y-103736535D01*
X129929633Y-103725101D01*
X129894897Y-103706534D01*
X129864452Y-103681548D01*
X129839466Y-103651103D01*
X129820899Y-103616367D01*
X129809465Y-103578674D01*
X129805000Y-103533339D01*
X129805000Y-102696661D01*
X129809465Y-102651326D01*
X129820899Y-102613633D01*
X129839466Y-102578897D01*
X129864452Y-102548452D01*
X129894897Y-102523466D01*
X129929633Y-102504899D01*
X129967326Y-102493465D01*
X130012661Y-102489000D01*
X131099339Y-102489000D01*
X131144674Y-102493465D01*
G37*
G36*
X110311000Y-103691000D02*
G01*
X107709000Y-103691000D01*
X107709000Y-102589000D01*
X110311000Y-102589000D01*
X110311000Y-103691000D01*
G37*
G36*
X128511000Y-103691000D02*
G01*
X125909000Y-103691000D01*
X125909000Y-102589000D01*
X128511000Y-102589000D01*
X128511000Y-103691000D01*
G37*
G36*
X110311000Y-101691000D02*
G01*
X107709000Y-101691000D01*
X107709000Y-100589000D01*
X110311000Y-100589000D01*
X110311000Y-101691000D01*
G37*
G36*
X128511000Y-101691000D02*
G01*
X125909000Y-101691000D01*
X125909000Y-100589000D01*
X128511000Y-100589000D01*
X128511000Y-101691000D01*
G37*
G36*
X99648674Y-100399465D02*
G01*
X99686367Y-100410899D01*
X99721103Y-100429466D01*
X99751548Y-100454452D01*
X99776534Y-100484897D01*
X99795101Y-100519633D01*
X99806535Y-100557326D01*
X99811000Y-100602661D01*
X99811000Y-101439339D01*
X99806535Y-101484674D01*
X99795101Y-101522367D01*
X99776534Y-101557103D01*
X99751548Y-101587548D01*
X99721103Y-101612534D01*
X99686367Y-101631101D01*
X99648674Y-101642535D01*
X99603339Y-101647000D01*
X98516661Y-101647000D01*
X98471326Y-101642535D01*
X98433633Y-101631101D01*
X98398897Y-101612534D01*
X98368452Y-101587548D01*
X98343466Y-101557103D01*
X98324899Y-101522367D01*
X98313465Y-101484674D01*
X98309000Y-101439339D01*
X98309000Y-100602661D01*
X98313465Y-100557326D01*
X98324899Y-100519633D01*
X98343466Y-100484897D01*
X98368452Y-100454452D01*
X98398897Y-100429466D01*
X98433633Y-100410899D01*
X98471326Y-100399465D01*
X98516661Y-100395000D01*
X99603339Y-100395000D01*
X99648674Y-100399465D01*
G37*
G36*
X110311000Y-99691000D02*
G01*
X107709000Y-99691000D01*
X107709000Y-98589000D01*
X110311000Y-98589000D01*
X110311000Y-99691000D01*
G37*
G36*
X128511000Y-99691000D02*
G01*
X125909000Y-99691000D01*
X125909000Y-98589000D01*
X128511000Y-98589000D01*
X128511000Y-99691000D01*
G37*
G36*
X99648674Y-98349465D02*
G01*
X99686367Y-98360899D01*
X99721103Y-98379466D01*
X99751548Y-98404452D01*
X99776534Y-98434897D01*
X99795101Y-98469633D01*
X99806535Y-98507326D01*
X99811000Y-98552661D01*
X99811000Y-99389339D01*
X99806535Y-99434674D01*
X99795101Y-99472367D01*
X99776534Y-99507103D01*
X99751548Y-99537548D01*
X99721103Y-99562534D01*
X99686367Y-99581101D01*
X99648674Y-99592535D01*
X99603339Y-99597000D01*
X98516661Y-99597000D01*
X98471326Y-99592535D01*
X98433633Y-99581101D01*
X98398897Y-99562534D01*
X98368452Y-99537548D01*
X98343466Y-99507103D01*
X98324899Y-99472367D01*
X98313465Y-99434674D01*
X98309000Y-99389339D01*
X98309000Y-98552661D01*
X98313465Y-98507326D01*
X98324899Y-98469633D01*
X98343466Y-98434897D01*
X98368452Y-98404452D01*
X98398897Y-98379466D01*
X98433633Y-98360899D01*
X98471326Y-98349465D01*
X98516661Y-98345000D01*
X99603339Y-98345000D01*
X99648674Y-98349465D01*
G37*
G36*
X143082674Y-98193465D02*
G01*
X143120367Y-98204899D01*
X143155103Y-98223466D01*
X143185548Y-98248452D01*
X143210534Y-98278897D01*
X143229101Y-98313633D01*
X143240535Y-98351326D01*
X143245000Y-98396661D01*
X143245000Y-99233339D01*
X143240535Y-99278674D01*
X143229101Y-99316367D01*
X143210534Y-99351103D01*
X143185548Y-99381548D01*
X143155103Y-99406534D01*
X143120367Y-99425101D01*
X143082674Y-99436535D01*
X143037339Y-99441000D01*
X141950661Y-99441000D01*
X141905326Y-99436535D01*
X141867633Y-99425101D01*
X141832897Y-99406534D01*
X141802452Y-99381548D01*
X141777466Y-99351103D01*
X141758899Y-99316367D01*
X141747465Y-99278674D01*
X141743000Y-99233339D01*
X141743000Y-98396661D01*
X141747465Y-98351326D01*
X141758899Y-98313633D01*
X141777466Y-98278897D01*
X141802452Y-98248452D01*
X141832897Y-98223466D01*
X141867633Y-98204899D01*
X141905326Y-98193465D01*
X141950661Y-98189000D01*
X143037339Y-98189000D01*
X143082674Y-98193465D01*
G37*
G36*
X135462674Y-98193465D02*
G01*
X135500367Y-98204899D01*
X135535103Y-98223466D01*
X135565548Y-98248452D01*
X135590534Y-98278897D01*
X135609101Y-98313633D01*
X135620535Y-98351326D01*
X135625000Y-98396661D01*
X135625000Y-99233339D01*
X135620535Y-99278674D01*
X135609101Y-99316367D01*
X135590534Y-99351103D01*
X135565548Y-99381548D01*
X135535103Y-99406534D01*
X135500367Y-99425101D01*
X135462674Y-99436535D01*
X135417339Y-99441000D01*
X134330661Y-99441000D01*
X134285326Y-99436535D01*
X134247633Y-99425101D01*
X134212897Y-99406534D01*
X134182452Y-99381548D01*
X134157466Y-99351103D01*
X134138899Y-99316367D01*
X134127465Y-99278674D01*
X134123000Y-99233339D01*
X134123000Y-98396661D01*
X134127465Y-98351326D01*
X134138899Y-98313633D01*
X134157466Y-98278897D01*
X134182452Y-98248452D01*
X134212897Y-98223466D01*
X134247633Y-98204899D01*
X134285326Y-98193465D01*
X134330661Y-98189000D01*
X135417339Y-98189000D01*
X135462674Y-98193465D01*
G37*
G36*
X110311000Y-97691000D02*
G01*
X107709000Y-97691000D01*
X107709000Y-96589000D01*
X110311000Y-96589000D01*
X110311000Y-97691000D01*
G37*
G36*
X128511000Y-97691000D02*
G01*
X125909000Y-97691000D01*
X125909000Y-96589000D01*
X128511000Y-96589000D01*
X128511000Y-97691000D01*
G37*
G36*
X143082674Y-96143465D02*
G01*
X143120367Y-96154899D01*
X143155103Y-96173466D01*
X143185548Y-96198452D01*
X143210534Y-96228897D01*
X143229101Y-96263633D01*
X143240535Y-96301326D01*
X143245000Y-96346661D01*
X143245000Y-97183339D01*
X143240535Y-97228674D01*
X143229101Y-97266367D01*
X143210534Y-97301103D01*
X143185548Y-97331548D01*
X143155103Y-97356534D01*
X143120367Y-97375101D01*
X143082674Y-97386535D01*
X143037339Y-97391000D01*
X141950661Y-97391000D01*
X141905326Y-97386535D01*
X141867633Y-97375101D01*
X141832897Y-97356534D01*
X141802452Y-97331548D01*
X141777466Y-97301103D01*
X141758899Y-97266367D01*
X141747465Y-97228674D01*
X141743000Y-97183339D01*
X141743000Y-96346661D01*
X141747465Y-96301326D01*
X141758899Y-96263633D01*
X141777466Y-96228897D01*
X141802452Y-96198452D01*
X141832897Y-96173466D01*
X141867633Y-96154899D01*
X141905326Y-96143465D01*
X141950661Y-96139000D01*
X143037339Y-96139000D01*
X143082674Y-96143465D01*
G37*
G36*
X135462674Y-96143465D02*
G01*
X135500367Y-96154899D01*
X135535103Y-96173466D01*
X135565548Y-96198452D01*
X135590534Y-96228897D01*
X135609101Y-96263633D01*
X135620535Y-96301326D01*
X135625000Y-96346661D01*
X135625000Y-97183339D01*
X135620535Y-97228674D01*
X135609101Y-97266367D01*
X135590534Y-97301103D01*
X135565548Y-97331548D01*
X135535103Y-97356534D01*
X135500367Y-97375101D01*
X135462674Y-97386535D01*
X135417339Y-97391000D01*
X134330661Y-97391000D01*
X134285326Y-97386535D01*
X134247633Y-97375101D01*
X134212897Y-97356534D01*
X134182452Y-97331548D01*
X134157466Y-97301103D01*
X134138899Y-97266367D01*
X134127465Y-97228674D01*
X134123000Y-97183339D01*
X134123000Y-96346661D01*
X134127465Y-96301326D01*
X134138899Y-96263633D01*
X134157466Y-96228897D01*
X134182452Y-96198452D01*
X134212897Y-96173466D01*
X134247633Y-96154899D01*
X134285326Y-96143465D01*
X134330661Y-96139000D01*
X135417339Y-96139000D01*
X135462674Y-96143465D01*
G37*
G36*
X99173512Y-92829927D02*
G01*
X99322812Y-92859624D01*
X99486784Y-92927544D01*
X99634354Y-93026147D01*
X99759853Y-93151646D01*
X99858456Y-93299216D01*
X99926376Y-93463188D01*
X99961000Y-93637259D01*
X99961000Y-93814741D01*
X99926376Y-93988812D01*
X99858456Y-94152784D01*
X99759853Y-94300354D01*
X99634354Y-94425853D01*
X99486784Y-94524456D01*
X99322812Y-94592376D01*
X99173512Y-94622073D01*
X99148742Y-94627000D01*
X98971258Y-94627000D01*
X98946488Y-94622073D01*
X98797188Y-94592376D01*
X98633216Y-94524456D01*
X98485646Y-94425853D01*
X98360147Y-94300354D01*
X98261544Y-94152784D01*
X98193624Y-93988812D01*
X98159000Y-93814741D01*
X98159000Y-93637259D01*
X98193624Y-93463188D01*
X98261544Y-93299216D01*
X98360147Y-93151646D01*
X98485646Y-93026147D01*
X98633216Y-92927544D01*
X98797188Y-92859624D01*
X98946488Y-92829927D01*
X98971258Y-92825000D01*
X99148742Y-92825000D01*
X99173512Y-92829927D01*
G37*
G36*
X150956674Y-91843465D02*
G01*
X150994367Y-91854899D01*
X151029103Y-91873466D01*
X151059548Y-91898452D01*
X151084534Y-91928897D01*
X151103101Y-91963633D01*
X151114535Y-92001326D01*
X151119000Y-92046661D01*
X151119000Y-92883339D01*
X151114535Y-92928674D01*
X151103101Y-92966367D01*
X151084534Y-93001103D01*
X151059548Y-93031548D01*
X151029103Y-93056534D01*
X150994367Y-93075101D01*
X150956674Y-93086535D01*
X150911339Y-93091000D01*
X149824661Y-93091000D01*
X149779326Y-93086535D01*
X149741633Y-93075101D01*
X149706897Y-93056534D01*
X149676452Y-93031548D01*
X149651466Y-93001103D01*
X149632899Y-92966367D01*
X149621465Y-92928674D01*
X149617000Y-92883339D01*
X149617000Y-92046661D01*
X149621465Y-92001326D01*
X149632899Y-91963633D01*
X149651466Y-91928897D01*
X149676452Y-91898452D01*
X149706897Y-91873466D01*
X149741633Y-91854899D01*
X149779326Y-91843465D01*
X149824661Y-91839000D01*
X150911339Y-91839000D01*
X150956674Y-91843465D01*
G37*
G36*
X99173512Y-90289927D02*
G01*
X99322812Y-90319624D01*
X99486784Y-90387544D01*
X99634354Y-90486147D01*
X99759853Y-90611646D01*
X99858456Y-90759216D01*
X99926376Y-90923188D01*
X99961000Y-91097259D01*
X99961000Y-91274741D01*
X99926376Y-91448812D01*
X99858456Y-91612784D01*
X99759853Y-91760354D01*
X99634354Y-91885853D01*
X99486784Y-91984456D01*
X99322812Y-92052376D01*
X99173512Y-92082073D01*
X99148742Y-92087000D01*
X98971258Y-92087000D01*
X98946488Y-92082073D01*
X98797188Y-92052376D01*
X98633216Y-91984456D01*
X98485646Y-91885853D01*
X98360147Y-91760354D01*
X98261544Y-91612784D01*
X98193624Y-91448812D01*
X98159000Y-91274741D01*
X98159000Y-91097259D01*
X98193624Y-90923188D01*
X98261544Y-90759216D01*
X98360147Y-90611646D01*
X98485646Y-90486147D01*
X98633216Y-90387544D01*
X98797188Y-90319624D01*
X98946488Y-90289927D01*
X98971258Y-90285000D01*
X99148742Y-90285000D01*
X99173512Y-90289927D01*
G37*
G36*
X150956674Y-89793465D02*
G01*
X150994367Y-89804899D01*
X151029103Y-89823466D01*
X151059548Y-89848452D01*
X151084534Y-89878897D01*
X151103101Y-89913633D01*
X151114535Y-89951326D01*
X151119000Y-89996661D01*
X151119000Y-90833339D01*
X151114535Y-90878674D01*
X151103101Y-90916367D01*
X151084534Y-90951103D01*
X151059548Y-90981548D01*
X151029103Y-91006534D01*
X150994367Y-91025101D01*
X150956674Y-91036535D01*
X150911339Y-91041000D01*
X149824661Y-91041000D01*
X149779326Y-91036535D01*
X149741633Y-91025101D01*
X149706897Y-91006534D01*
X149676452Y-90981548D01*
X149651466Y-90951103D01*
X149632899Y-90916367D01*
X149621465Y-90878674D01*
X149617000Y-90833339D01*
X149617000Y-89996661D01*
X149621465Y-89951326D01*
X149632899Y-89913633D01*
X149651466Y-89878897D01*
X149676452Y-89848452D01*
X149706897Y-89823466D01*
X149741633Y-89804899D01*
X149779326Y-89793465D01*
X149824661Y-89789000D01*
X150911339Y-89789000D01*
X150956674Y-89793465D01*
G37*
G36*
X141845512Y-88725927D02*
G01*
X141994812Y-88755624D01*
X142158784Y-88823544D01*
X142306354Y-88922147D01*
X142431853Y-89047646D01*
X142530456Y-89195216D01*
X142598376Y-89359188D01*
X142633000Y-89533259D01*
X142633000Y-89710741D01*
X142598376Y-89884812D01*
X142530456Y-90048784D01*
X142431853Y-90196354D01*
X142306354Y-90321853D01*
X142158784Y-90420456D01*
X141994812Y-90488376D01*
X141845512Y-90518073D01*
X141820742Y-90523000D01*
X141643258Y-90523000D01*
X141618488Y-90518073D01*
X141469188Y-90488376D01*
X141305216Y-90420456D01*
X141157646Y-90321853D01*
X141032147Y-90196354D01*
X140933544Y-90048784D01*
X140865624Y-89884812D01*
X140831000Y-89710741D01*
X140831000Y-89533259D01*
X140865624Y-89359188D01*
X140933544Y-89195216D01*
X141032147Y-89047646D01*
X141157646Y-88922147D01*
X141305216Y-88823544D01*
X141469188Y-88755624D01*
X141618488Y-88725927D01*
X141643258Y-88721000D01*
X141820742Y-88721000D01*
X141845512Y-88725927D01*
G37*
G36*
X99173512Y-87749927D02*
G01*
X99322812Y-87779624D01*
X99486784Y-87847544D01*
X99634354Y-87946147D01*
X99759853Y-88071646D01*
X99858456Y-88219216D01*
X99926376Y-88383188D01*
X99961000Y-88557259D01*
X99961000Y-88734741D01*
X99926376Y-88908812D01*
X99858456Y-89072784D01*
X99759853Y-89220354D01*
X99634354Y-89345853D01*
X99486784Y-89444456D01*
X99322812Y-89512376D01*
X99173512Y-89542073D01*
X99148742Y-89547000D01*
X98971258Y-89547000D01*
X98946488Y-89542073D01*
X98797188Y-89512376D01*
X98633216Y-89444456D01*
X98485646Y-89345853D01*
X98360147Y-89220354D01*
X98261544Y-89072784D01*
X98193624Y-88908812D01*
X98159000Y-88734741D01*
X98159000Y-88557259D01*
X98193624Y-88383188D01*
X98261544Y-88219216D01*
X98360147Y-88071646D01*
X98485646Y-87946147D01*
X98633216Y-87847544D01*
X98797188Y-87779624D01*
X98946488Y-87749927D01*
X98971258Y-87745000D01*
X99148742Y-87745000D01*
X99173512Y-87749927D01*
G37*
G36*
X137378674Y-85613465D02*
G01*
X137416367Y-85624899D01*
X137451103Y-85643466D01*
X137481548Y-85668452D01*
X137506534Y-85698897D01*
X137525101Y-85733633D01*
X137536535Y-85771326D01*
X137541000Y-85816661D01*
X137541000Y-86903339D01*
X137536535Y-86948674D01*
X137525101Y-86986367D01*
X137506534Y-87021103D01*
X137481548Y-87051548D01*
X137451103Y-87076534D01*
X137416367Y-87095101D01*
X137378674Y-87106535D01*
X137333339Y-87111000D01*
X136496661Y-87111000D01*
X136451326Y-87106535D01*
X136413633Y-87095101D01*
X136378897Y-87076534D01*
X136348452Y-87051548D01*
X136323466Y-87021103D01*
X136304899Y-86986367D01*
X136293465Y-86948674D01*
X136289000Y-86903339D01*
X136289000Y-85816661D01*
X136293465Y-85771326D01*
X136304899Y-85733633D01*
X136323466Y-85698897D01*
X136348452Y-85668452D01*
X136378897Y-85643466D01*
X136413633Y-85624899D01*
X136451326Y-85613465D01*
X136496661Y-85609000D01*
X137333339Y-85609000D01*
X137378674Y-85613465D01*
G37*
G36*
X135328674Y-85613465D02*
G01*
X135366367Y-85624899D01*
X135401103Y-85643466D01*
X135431548Y-85668452D01*
X135456534Y-85698897D01*
X135475101Y-85733633D01*
X135486535Y-85771326D01*
X135491000Y-85816661D01*
X135491000Y-86903339D01*
X135486535Y-86948674D01*
X135475101Y-86986367D01*
X135456534Y-87021103D01*
X135431548Y-87051548D01*
X135401103Y-87076534D01*
X135366367Y-87095101D01*
X135328674Y-87106535D01*
X135283339Y-87111000D01*
X134446661Y-87111000D01*
X134401326Y-87106535D01*
X134363633Y-87095101D01*
X134328897Y-87076534D01*
X134298452Y-87051548D01*
X134273466Y-87021103D01*
X134254899Y-86986367D01*
X134243465Y-86948674D01*
X134239000Y-86903339D01*
X134239000Y-85816661D01*
X134243465Y-85771326D01*
X134254899Y-85733633D01*
X134273466Y-85698897D01*
X134298452Y-85668452D01*
X134328897Y-85643466D01*
X134363633Y-85624899D01*
X134401326Y-85613465D01*
X134446661Y-85609000D01*
X135283339Y-85609000D01*
X135328674Y-85613465D01*
G37*
G36*
X99961000Y-87007000D02*
G01*
X98159000Y-87007000D01*
X98159000Y-85205000D01*
X99961000Y-85205000D01*
X99961000Y-87007000D01*
G37*
G36*
X151269000Y-86245000D02*
G01*
X149467000Y-86245000D01*
X149467000Y-84443000D01*
X151269000Y-84443000D01*
X151269000Y-86245000D01*
G37*
G36*
X141845512Y-83725927D02*
G01*
X141994812Y-83755624D01*
X142158784Y-83823544D01*
X142306354Y-83922147D01*
X142431853Y-84047646D01*
X142530456Y-84195216D01*
X142598376Y-84359188D01*
X142633000Y-84533259D01*
X142633000Y-84710741D01*
X142598376Y-84884812D01*
X142530456Y-85048784D01*
X142431853Y-85196354D01*
X142306354Y-85321853D01*
X142158784Y-85420456D01*
X141994812Y-85488376D01*
X141845512Y-85518073D01*
X141820742Y-85523000D01*
X141643258Y-85523000D01*
X141618488Y-85518073D01*
X141469188Y-85488376D01*
X141305216Y-85420456D01*
X141157646Y-85321853D01*
X141032147Y-85196354D01*
X140933544Y-85048784D01*
X140865624Y-84884812D01*
X140831000Y-84710741D01*
X140831000Y-84533259D01*
X140865624Y-84359188D01*
X140933544Y-84195216D01*
X141032147Y-84047646D01*
X141157646Y-83922147D01*
X141305216Y-83823544D01*
X141469188Y-83755624D01*
X141618488Y-83725927D01*
X141643258Y-83721000D01*
X141820742Y-83721000D01*
X141845512Y-83725927D01*
G37*
G36*
X123056000Y-85236000D02*
G01*
X122054000Y-85236000D01*
X122054000Y-83134000D01*
X123056000Y-83134000D01*
X123056000Y-85236000D01*
G37*
G36*
X112896000Y-85236000D02*
G01*
X111894000Y-85236000D01*
X111894000Y-83134000D01*
X112896000Y-83134000D01*
X112896000Y-85236000D01*
G37*
G36*
X114166000Y-85236000D02*
G01*
X113164000Y-85236000D01*
X113164000Y-83134000D01*
X114166000Y-83134000D01*
X114166000Y-85236000D01*
G37*
G36*
X115436000Y-85236000D02*
G01*
X114434000Y-85236000D01*
X114434000Y-83134000D01*
X115436000Y-83134000D01*
X115436000Y-85236000D01*
G37*
G36*
X116706000Y-85236000D02*
G01*
X115704000Y-85236000D01*
X115704000Y-83134000D01*
X116706000Y-83134000D01*
X116706000Y-85236000D01*
G37*
G36*
X117976000Y-85236000D02*
G01*
X116974000Y-85236000D01*
X116974000Y-83134000D01*
X117976000Y-83134000D01*
X117976000Y-85236000D01*
G37*
G36*
X119246000Y-85236000D02*
G01*
X118244000Y-85236000D01*
X118244000Y-83134000D01*
X119246000Y-83134000D01*
X119246000Y-85236000D01*
G37*
G36*
X121786000Y-85236000D02*
G01*
X120784000Y-85236000D01*
X120784000Y-83134000D01*
X121786000Y-83134000D01*
X121786000Y-85236000D01*
G37*
G36*
X124326000Y-85236000D02*
G01*
X123324000Y-85236000D01*
X123324000Y-83134000D01*
X124326000Y-83134000D01*
X124326000Y-85236000D01*
G37*
G36*
X120516000Y-85236000D02*
G01*
X119514000Y-85236000D01*
X119514000Y-83134000D01*
X120516000Y-83134000D01*
X120516000Y-85236000D01*
G37*
G36*
X150481512Y-81907927D02*
G01*
X150630812Y-81937624D01*
X150794784Y-82005544D01*
X150942354Y-82104147D01*
X151067853Y-82229646D01*
X151166456Y-82377216D01*
X151234376Y-82541188D01*
X151269000Y-82715259D01*
X151269000Y-82892741D01*
X151234376Y-83066812D01*
X151166456Y-83230784D01*
X151067853Y-83378354D01*
X150942354Y-83503853D01*
X150794784Y-83602456D01*
X150630812Y-83670376D01*
X150481512Y-83700073D01*
X150456742Y-83705000D01*
X150279258Y-83705000D01*
X150254488Y-83700073D01*
X150105188Y-83670376D01*
X149941216Y-83602456D01*
X149793646Y-83503853D01*
X149668147Y-83378354D01*
X149569544Y-83230784D01*
X149501624Y-83066812D01*
X149467000Y-82892741D01*
X149467000Y-82715259D01*
X149501624Y-82541188D01*
X149569544Y-82377216D01*
X149668147Y-82229646D01*
X149793646Y-82104147D01*
X149941216Y-82005544D01*
X150105188Y-81937624D01*
X150254488Y-81907927D01*
X150279258Y-81903000D01*
X150456742Y-81903000D01*
X150481512Y-81907927D01*
G37*
G36*
X127661000Y-83686000D02*
G01*
X125559000Y-83686000D01*
X125559000Y-82684000D01*
X127661000Y-82684000D01*
X127661000Y-83686000D01*
G37*
G36*
X110661000Y-83686000D02*
G01*
X108559000Y-83686000D01*
X108559000Y-82684000D01*
X110661000Y-82684000D01*
X110661000Y-83686000D01*
G37*
G36*
X127661000Y-82416000D02*
G01*
X125559000Y-82416000D01*
X125559000Y-81414000D01*
X127661000Y-81414000D01*
X127661000Y-82416000D01*
G37*
G36*
X110661000Y-82416000D02*
G01*
X108559000Y-82416000D01*
X108559000Y-81414000D01*
X110661000Y-81414000D01*
X110661000Y-82416000D01*
G37*
G36*
X99648674Y-80159465D02*
G01*
X99686367Y-80170899D01*
X99721103Y-80189466D01*
X99751548Y-80214452D01*
X99776534Y-80244897D01*
X99795101Y-80279633D01*
X99806535Y-80317326D01*
X99811000Y-80362661D01*
X99811000Y-81199339D01*
X99806535Y-81244674D01*
X99795101Y-81282367D01*
X99776534Y-81317103D01*
X99751548Y-81347548D01*
X99721103Y-81372534D01*
X99686367Y-81391101D01*
X99648674Y-81402535D01*
X99603339Y-81407000D01*
X98516661Y-81407000D01*
X98471326Y-81402535D01*
X98433633Y-81391101D01*
X98398897Y-81372534D01*
X98368452Y-81347548D01*
X98343466Y-81317103D01*
X98324899Y-81282367D01*
X98313465Y-81244674D01*
X98309000Y-81199339D01*
X98309000Y-80362661D01*
X98313465Y-80317326D01*
X98324899Y-80279633D01*
X98343466Y-80244897D01*
X98368452Y-80214452D01*
X98398897Y-80189466D01*
X98433633Y-80170899D01*
X98471326Y-80159465D01*
X98516661Y-80155000D01*
X99603339Y-80155000D01*
X99648674Y-80159465D01*
G37*
G36*
X150481512Y-79367927D02*
G01*
X150630812Y-79397624D01*
X150794784Y-79465544D01*
X150942354Y-79564147D01*
X151067853Y-79689646D01*
X151166456Y-79837216D01*
X151234376Y-80001188D01*
X151262782Y-80144000D01*
X151265859Y-80159465D01*
X151269000Y-80175259D01*
X151269000Y-80352741D01*
X151234376Y-80526812D01*
X151166456Y-80690784D01*
X151067853Y-80838354D01*
X150942354Y-80963853D01*
X150794784Y-81062456D01*
X150630812Y-81130376D01*
X150481512Y-81160073D01*
X150456742Y-81165000D01*
X150279258Y-81165000D01*
X150254488Y-81160073D01*
X150105188Y-81130376D01*
X149941216Y-81062456D01*
X149793646Y-80963853D01*
X149668147Y-80838354D01*
X149569544Y-80690784D01*
X149501624Y-80526812D01*
X149467000Y-80352741D01*
X149467000Y-80175259D01*
X149470142Y-80159465D01*
X149473218Y-80144000D01*
X149501624Y-80001188D01*
X149569544Y-79837216D01*
X149668147Y-79689646D01*
X149793646Y-79564147D01*
X149941216Y-79465544D01*
X150105188Y-79397624D01*
X150254488Y-79367927D01*
X150279258Y-79363000D01*
X150456742Y-79363000D01*
X150481512Y-79367927D01*
G37*
G36*
X127661000Y-81146000D02*
G01*
X125559000Y-81146000D01*
X125559000Y-80144000D01*
X127661000Y-80144000D01*
X127661000Y-81146000D01*
G37*
G36*
X110661000Y-81146000D02*
G01*
X108559000Y-81146000D01*
X108559000Y-80144000D01*
X110661000Y-80144000D01*
X110661000Y-81146000D01*
G37*
G36*
X141845512Y-78311927D02*
G01*
X141994812Y-78341624D01*
X142158784Y-78409544D01*
X142306354Y-78508147D01*
X142431853Y-78633646D01*
X142530456Y-78781216D01*
X142598376Y-78945188D01*
X142626151Y-79084827D01*
X142633000Y-79119258D01*
X142633000Y-79296742D01*
X142630138Y-79311131D01*
X142598376Y-79470812D01*
X142530456Y-79634784D01*
X142431853Y-79782354D01*
X142306354Y-79907853D01*
X142158784Y-80006456D01*
X141994812Y-80074376D01*
X141845512Y-80104073D01*
X141820742Y-80109000D01*
X141643258Y-80109000D01*
X141618488Y-80104073D01*
X141469188Y-80074376D01*
X141305216Y-80006456D01*
X141157646Y-79907853D01*
X141032147Y-79782354D01*
X140933544Y-79634784D01*
X140865624Y-79470812D01*
X140833862Y-79311131D01*
X140831000Y-79296742D01*
X140831000Y-79119258D01*
X140837849Y-79084827D01*
X140865624Y-78945188D01*
X140933544Y-78781216D01*
X141032147Y-78633646D01*
X141157646Y-78508147D01*
X141305216Y-78409544D01*
X141469188Y-78341624D01*
X141618488Y-78311927D01*
X141643258Y-78307000D01*
X141820742Y-78307000D01*
X141845512Y-78311927D01*
G37*
G36*
X110661000Y-79876000D02*
G01*
X108559000Y-79876000D01*
X108559000Y-78874000D01*
X110661000Y-78874000D01*
X110661000Y-79876000D01*
G37*
G36*
X127661000Y-79876000D02*
G01*
X125559000Y-79876000D01*
X125559000Y-78874000D01*
X127661000Y-78874000D01*
X127661000Y-79876000D01*
G37*
G36*
X99648674Y-78109465D02*
G01*
X99686367Y-78120899D01*
X99721103Y-78139466D01*
X99751548Y-78164452D01*
X99776534Y-78194897D01*
X99795101Y-78229633D01*
X99806535Y-78267326D01*
X99811000Y-78312661D01*
X99811000Y-79149339D01*
X99806535Y-79194674D01*
X99795101Y-79232367D01*
X99776534Y-79267103D01*
X99751548Y-79297548D01*
X99721103Y-79322534D01*
X99686367Y-79341101D01*
X99648674Y-79352535D01*
X99603339Y-79357000D01*
X98516661Y-79357000D01*
X98471326Y-79352535D01*
X98433633Y-79341101D01*
X98398897Y-79322534D01*
X98368452Y-79297548D01*
X98343466Y-79267103D01*
X98324899Y-79232367D01*
X98313465Y-79194674D01*
X98309000Y-79149339D01*
X98309000Y-78312661D01*
X98313465Y-78267326D01*
X98324899Y-78229633D01*
X98343466Y-78194897D01*
X98368452Y-78164452D01*
X98398897Y-78139466D01*
X98433633Y-78120899D01*
X98471326Y-78109465D01*
X98516661Y-78105000D01*
X99603339Y-78105000D01*
X99648674Y-78109465D01*
G37*
G36*
X150481512Y-76827927D02*
G01*
X150630812Y-76857624D01*
X150794784Y-76925544D01*
X150942354Y-77024147D01*
X151067853Y-77149646D01*
X151166456Y-77297216D01*
X151234376Y-77461188D01*
X151269000Y-77635259D01*
X151269000Y-77812741D01*
X151234376Y-77986812D01*
X151166456Y-78150784D01*
X151067853Y-78298354D01*
X150942354Y-78423853D01*
X150794784Y-78522456D01*
X150630812Y-78590376D01*
X150481512Y-78620073D01*
X150456742Y-78625000D01*
X150279258Y-78625000D01*
X150254488Y-78620073D01*
X150105188Y-78590376D01*
X149941216Y-78522456D01*
X149793646Y-78423853D01*
X149668147Y-78298354D01*
X149569544Y-78150784D01*
X149501624Y-77986812D01*
X149467000Y-77812741D01*
X149467000Y-77635259D01*
X149501624Y-77461188D01*
X149569544Y-77297216D01*
X149668147Y-77149646D01*
X149793646Y-77024147D01*
X149941216Y-76925544D01*
X150105188Y-76857624D01*
X150254488Y-76827927D01*
X150279258Y-76823000D01*
X150456742Y-76823000D01*
X150481512Y-76827927D01*
G37*
G36*
X127661000Y-78606000D02*
G01*
X125559000Y-78606000D01*
X125559000Y-77604000D01*
X127661000Y-77604000D01*
X127661000Y-78606000D01*
G37*
G36*
X110661000Y-78606000D02*
G01*
X108559000Y-78606000D01*
X108559000Y-77604000D01*
X110661000Y-77604000D01*
X110661000Y-78606000D01*
G37*
G36*
X105236674Y-76603465D02*
G01*
X105274367Y-76614899D01*
X105309103Y-76633466D01*
X105339548Y-76658452D01*
X105364534Y-76688897D01*
X105383101Y-76723633D01*
X105394535Y-76761326D01*
X105399000Y-76806661D01*
X105399000Y-77643339D01*
X105394535Y-77688674D01*
X105383101Y-77726367D01*
X105364534Y-77761103D01*
X105339548Y-77791548D01*
X105309103Y-77816534D01*
X105274367Y-77835101D01*
X105236674Y-77846535D01*
X105191339Y-77851000D01*
X104104661Y-77851000D01*
X104059326Y-77846535D01*
X104021633Y-77835101D01*
X103986897Y-77816534D01*
X103956452Y-77791548D01*
X103931466Y-77761103D01*
X103912899Y-77726367D01*
X103901465Y-77688674D01*
X103897000Y-77643339D01*
X103897000Y-76806661D01*
X103901465Y-76761326D01*
X103912899Y-76723633D01*
X103931466Y-76688897D01*
X103956452Y-76658452D01*
X103986897Y-76633466D01*
X104021633Y-76614899D01*
X104059326Y-76603465D01*
X104104661Y-76599000D01*
X105191339Y-76599000D01*
X105236674Y-76603465D01*
G37*
G36*
X110661000Y-77336000D02*
G01*
X108559000Y-77336000D01*
X108559000Y-76334000D01*
X110661000Y-76334000D01*
X110661000Y-77336000D01*
G37*
G36*
X127661000Y-77336000D02*
G01*
X125559000Y-77336000D01*
X125559000Y-76334000D01*
X127661000Y-76334000D01*
X127661000Y-77336000D01*
G37*
G36*
X119661000Y-76726000D02*
G01*
X114559000Y-76726000D01*
X114559000Y-71624000D01*
X119661000Y-71624000D01*
X119661000Y-76726000D01*
G37*
G36*
X110661000Y-76066000D02*
G01*
X108559000Y-76066000D01*
X108559000Y-75064000D01*
X110661000Y-75064000D01*
X110661000Y-76066000D01*
G37*
G36*
X127661000Y-76066000D02*
G01*
X125559000Y-76066000D01*
X125559000Y-75064000D01*
X127661000Y-75064000D01*
X127661000Y-76066000D01*
G37*
G36*
X99173512Y-74033927D02*
G01*
X99322812Y-74063624D01*
X99486784Y-74131544D01*
X99634354Y-74230147D01*
X99759853Y-74355646D01*
X99858456Y-74503216D01*
X99926376Y-74667188D01*
X99961000Y-74841259D01*
X99961000Y-75018741D01*
X99926376Y-75192812D01*
X99858456Y-75356784D01*
X99759853Y-75504354D01*
X99634354Y-75629853D01*
X99486784Y-75728456D01*
X99322812Y-75796376D01*
X99173512Y-75826073D01*
X99148742Y-75831000D01*
X98971258Y-75831000D01*
X98946488Y-75826073D01*
X98797188Y-75796376D01*
X98633216Y-75728456D01*
X98485646Y-75629853D01*
X98360147Y-75504354D01*
X98261544Y-75356784D01*
X98193624Y-75192812D01*
X98159000Y-75018741D01*
X98159000Y-74841259D01*
X98193624Y-74667188D01*
X98261544Y-74503216D01*
X98360147Y-74355646D01*
X98485646Y-74230147D01*
X98633216Y-74131544D01*
X98797188Y-74063624D01*
X98946488Y-74033927D01*
X98971258Y-74029000D01*
X99148742Y-74029000D01*
X99173512Y-74033927D01*
G37*
G36*
X105236674Y-74553465D02*
G01*
X105274367Y-74564899D01*
X105309103Y-74583466D01*
X105339548Y-74608452D01*
X105364534Y-74638897D01*
X105383101Y-74673633D01*
X105394535Y-74711326D01*
X105399000Y-74756661D01*
X105399000Y-75593339D01*
X105394535Y-75638674D01*
X105383101Y-75676367D01*
X105364534Y-75711103D01*
X105339548Y-75741548D01*
X105309103Y-75766534D01*
X105274367Y-75785101D01*
X105236674Y-75796535D01*
X105191339Y-75801000D01*
X104104661Y-75801000D01*
X104059326Y-75796535D01*
X104021633Y-75785101D01*
X103986897Y-75766534D01*
X103956452Y-75741548D01*
X103931466Y-75711103D01*
X103912899Y-75676367D01*
X103901465Y-75638674D01*
X103897000Y-75593339D01*
X103897000Y-74756661D01*
X103901465Y-74711326D01*
X103912899Y-74673633D01*
X103931466Y-74638897D01*
X103956452Y-74608452D01*
X103986897Y-74583466D01*
X104021633Y-74564899D01*
X104059326Y-74553465D01*
X104104661Y-74549000D01*
X105191339Y-74549000D01*
X105236674Y-74553465D01*
G37*
G36*
X141845512Y-73311927D02*
G01*
X141994812Y-73341624D01*
X142158784Y-73409544D01*
X142306354Y-73508147D01*
X142431853Y-73633646D01*
X142530456Y-73781216D01*
X142598376Y-73945188D01*
X142633000Y-74119259D01*
X142633000Y-74296741D01*
X142598376Y-74470812D01*
X142530456Y-74634784D01*
X142431853Y-74782354D01*
X142306354Y-74907853D01*
X142158784Y-75006456D01*
X141994812Y-75074376D01*
X141845512Y-75104073D01*
X141820742Y-75109000D01*
X141643258Y-75109000D01*
X141618488Y-75104073D01*
X141469188Y-75074376D01*
X141305216Y-75006456D01*
X141157646Y-74907853D01*
X141032147Y-74782354D01*
X140933544Y-74634784D01*
X140865624Y-74470812D01*
X140831000Y-74296741D01*
X140831000Y-74119259D01*
X140865624Y-73945188D01*
X140933544Y-73781216D01*
X141032147Y-73633646D01*
X141157646Y-73508147D01*
X141305216Y-73409544D01*
X141469188Y-73341624D01*
X141618488Y-73311927D01*
X141643258Y-73307000D01*
X141820742Y-73307000D01*
X141845512Y-73311927D01*
G37*
G36*
X110661000Y-74796000D02*
G01*
X108559000Y-74796000D01*
X108559000Y-73794000D01*
X110661000Y-73794000D01*
X110661000Y-74796000D01*
G37*
G36*
X127661000Y-74796000D02*
G01*
X125559000Y-74796000D01*
X125559000Y-73794000D01*
X127661000Y-73794000D01*
X127661000Y-74796000D01*
G37*
G36*
X105236674Y-72548465D02*
G01*
X105274367Y-72559899D01*
X105309103Y-72578466D01*
X105339548Y-72603452D01*
X105364534Y-72633897D01*
X105383101Y-72668633D01*
X105394535Y-72706326D01*
X105399000Y-72751661D01*
X105399000Y-73588339D01*
X105394535Y-73633674D01*
X105383101Y-73671367D01*
X105364534Y-73706103D01*
X105339548Y-73736548D01*
X105309103Y-73761534D01*
X105274367Y-73780101D01*
X105236674Y-73791535D01*
X105191339Y-73796000D01*
X104104661Y-73796000D01*
X104059326Y-73791535D01*
X104021633Y-73780101D01*
X103986897Y-73761534D01*
X103956452Y-73736548D01*
X103931466Y-73706103D01*
X103912899Y-73671367D01*
X103901465Y-73633674D01*
X103897000Y-73588339D01*
X103897000Y-72751661D01*
X103901465Y-72706326D01*
X103912899Y-72668633D01*
X103931466Y-72633897D01*
X103956452Y-72603452D01*
X103986897Y-72578466D01*
X104021633Y-72559899D01*
X104059326Y-72548465D01*
X104104661Y-72544000D01*
X105191339Y-72544000D01*
X105236674Y-72548465D01*
G37*
G36*
X127661000Y-73526000D02*
G01*
X125559000Y-73526000D01*
X125559000Y-72524000D01*
X127661000Y-72524000D01*
X127661000Y-73526000D01*
G37*
G36*
X110661000Y-73526000D02*
G01*
X108559000Y-73526000D01*
X108559000Y-72524000D01*
X110661000Y-72524000D01*
X110661000Y-73526000D01*
G37*
G36*
X99173512Y-71493927D02*
G01*
X99322812Y-71523624D01*
X99486784Y-71591544D01*
X99634354Y-71690147D01*
X99759853Y-71815646D01*
X99858456Y-71963216D01*
X99926376Y-72127188D01*
X99961000Y-72301259D01*
X99961000Y-72478741D01*
X99926376Y-72652812D01*
X99858456Y-72816784D01*
X99759853Y-72964354D01*
X99634354Y-73089853D01*
X99486784Y-73188456D01*
X99322812Y-73256376D01*
X99173512Y-73286073D01*
X99148742Y-73291000D01*
X98971258Y-73291000D01*
X98946488Y-73286073D01*
X98797188Y-73256376D01*
X98633216Y-73188456D01*
X98485646Y-73089853D01*
X98360147Y-72964354D01*
X98261544Y-72816784D01*
X98193624Y-72652812D01*
X98159000Y-72478741D01*
X98159000Y-72301259D01*
X98193624Y-72127188D01*
X98261544Y-71963216D01*
X98360147Y-71815646D01*
X98485646Y-71690147D01*
X98633216Y-71591544D01*
X98797188Y-71523624D01*
X98946488Y-71493927D01*
X98971258Y-71489000D01*
X99148742Y-71489000D01*
X99173512Y-71493927D01*
G37*
G36*
X127661000Y-72256000D02*
G01*
X125559000Y-72256000D01*
X125559000Y-71254000D01*
X127661000Y-71254000D01*
X127661000Y-72256000D01*
G37*
G36*
X110661000Y-72256000D02*
G01*
X108559000Y-72256000D01*
X108559000Y-71254000D01*
X110661000Y-71254000D01*
X110661000Y-72256000D01*
G37*
G36*
X105236674Y-70498465D02*
G01*
X105274367Y-70509899D01*
X105309103Y-70528466D01*
X105339548Y-70553452D01*
X105364534Y-70583897D01*
X105383101Y-70618633D01*
X105394535Y-70656326D01*
X105399000Y-70701661D01*
X105399000Y-71538339D01*
X105394535Y-71583674D01*
X105383101Y-71621367D01*
X105364534Y-71656103D01*
X105339548Y-71686548D01*
X105309103Y-71711534D01*
X105274367Y-71730101D01*
X105236674Y-71741535D01*
X105191339Y-71746000D01*
X104104661Y-71746000D01*
X104059326Y-71741535D01*
X104021633Y-71730101D01*
X103986897Y-71711534D01*
X103956452Y-71686548D01*
X103931466Y-71656103D01*
X103912899Y-71621367D01*
X103901465Y-71583674D01*
X103897000Y-71538339D01*
X103897000Y-70701661D01*
X103901465Y-70656326D01*
X103912899Y-70618633D01*
X103931466Y-70583897D01*
X103956452Y-70553452D01*
X103986897Y-70528466D01*
X104021633Y-70509899D01*
X104059326Y-70498465D01*
X104104661Y-70494000D01*
X105191339Y-70494000D01*
X105236674Y-70498465D01*
G37*
G36*
X127661000Y-70986000D02*
G01*
X125559000Y-70986000D01*
X125559000Y-69984000D01*
X127661000Y-69984000D01*
X127661000Y-70986000D01*
G37*
G36*
X110661000Y-70986000D02*
G01*
X108559000Y-70986000D01*
X108559000Y-69984000D01*
X110661000Y-69984000D01*
X110661000Y-70986000D01*
G37*
G36*
X99173512Y-68953927D02*
G01*
X99322812Y-68983624D01*
X99486784Y-69051544D01*
X99634354Y-69150147D01*
X99759853Y-69275646D01*
X99858456Y-69423216D01*
X99926376Y-69587188D01*
X99961000Y-69761259D01*
X99961000Y-69938741D01*
X99926376Y-70112812D01*
X99858456Y-70276784D01*
X99759853Y-70424354D01*
X99634354Y-70549853D01*
X99486784Y-70648456D01*
X99322812Y-70716376D01*
X99173512Y-70746073D01*
X99148742Y-70751000D01*
X98971258Y-70751000D01*
X98946488Y-70746073D01*
X98797188Y-70716376D01*
X98633216Y-70648456D01*
X98485646Y-70549853D01*
X98360147Y-70424354D01*
X98261544Y-70276784D01*
X98193624Y-70112812D01*
X98159000Y-69938741D01*
X98159000Y-69761259D01*
X98193624Y-69587188D01*
X98261544Y-69423216D01*
X98360147Y-69275646D01*
X98485646Y-69150147D01*
X98633216Y-69051544D01*
X98797188Y-68983624D01*
X98946488Y-68953927D01*
X98971258Y-68949000D01*
X99148742Y-68949000D01*
X99173512Y-68953927D01*
G37*
G36*
X110661000Y-69716000D02*
G01*
X108559000Y-69716000D01*
X108559000Y-68714000D01*
X110661000Y-68714000D01*
X110661000Y-69716000D01*
G37*
G36*
X127661000Y-69716000D02*
G01*
X125559000Y-69716000D01*
X125559000Y-68714000D01*
X127661000Y-68714000D01*
X127661000Y-69716000D01*
G37*
G36*
X106760674Y-67967465D02*
G01*
X106798367Y-67978899D01*
X106833103Y-67997466D01*
X106863548Y-68022452D01*
X106888534Y-68052897D01*
X106907101Y-68087633D01*
X106918535Y-68125326D01*
X106923000Y-68170661D01*
X106923000Y-69007339D01*
X106918535Y-69052674D01*
X106907101Y-69090367D01*
X106888534Y-69125103D01*
X106863548Y-69155548D01*
X106833103Y-69180534D01*
X106798367Y-69199101D01*
X106760674Y-69210535D01*
X106715339Y-69215000D01*
X105628661Y-69215000D01*
X105583326Y-69210535D01*
X105545633Y-69199101D01*
X105510897Y-69180534D01*
X105480452Y-69155548D01*
X105455466Y-69125103D01*
X105436899Y-69090367D01*
X105425465Y-69052674D01*
X105421000Y-69007339D01*
X105421000Y-68170661D01*
X105425465Y-68125326D01*
X105436899Y-68087633D01*
X105455466Y-68052897D01*
X105480452Y-68022452D01*
X105510897Y-67997466D01*
X105545633Y-67978899D01*
X105583326Y-67967465D01*
X105628661Y-67963000D01*
X106715339Y-67963000D01*
X106760674Y-67967465D01*
G37*
G36*
X127661000Y-68446000D02*
G01*
X125559000Y-68446000D01*
X125559000Y-67444000D01*
X127661000Y-67444000D01*
X127661000Y-68446000D01*
G37*
G36*
X110661000Y-68446000D02*
G01*
X108559000Y-68446000D01*
X108559000Y-67444000D01*
X110661000Y-67444000D01*
X110661000Y-68446000D01*
G37*
G36*
X99961000Y-68211000D02*
G01*
X98159000Y-68211000D01*
X98159000Y-66409000D01*
X99961000Y-66409000D01*
X99961000Y-68211000D01*
G37*
G36*
X149815000Y-67351000D02*
G01*
X147913000Y-67351000D01*
X147913000Y-66079000D01*
X148488001Y-66079000D01*
X148512387Y-66076598D01*
X148535836Y-66069485D01*
X148557447Y-66057934D01*
X148576389Y-66042389D01*
X148591934Y-66023447D01*
X148603485Y-66001836D01*
X148610598Y-65978387D01*
X148613000Y-65954001D01*
X148613000Y-57379000D01*
X149815000Y-57379000D01*
X149815000Y-67351000D01*
G37*
G36*
X127661000Y-67176000D02*
G01*
X125559000Y-67176000D01*
X125559000Y-66174000D01*
X127661000Y-66174000D01*
X127661000Y-67176000D01*
G37*
G36*
X110661000Y-67176000D02*
G01*
X108559000Y-67176000D01*
X108559000Y-66174000D01*
X110661000Y-66174000D01*
X110661000Y-67176000D01*
G37*
G36*
X106760674Y-65917465D02*
G01*
X106798367Y-65928899D01*
X106833103Y-65947466D01*
X106863548Y-65972452D01*
X106888534Y-66002897D01*
X106907101Y-66037633D01*
X106918535Y-66075326D01*
X106923000Y-66120661D01*
X106923000Y-66957339D01*
X106918535Y-67002674D01*
X106907101Y-67040367D01*
X106888534Y-67075103D01*
X106863548Y-67105548D01*
X106833103Y-67130534D01*
X106798367Y-67149101D01*
X106760674Y-67160535D01*
X106715339Y-67165000D01*
X105628661Y-67165000D01*
X105583326Y-67160535D01*
X105545633Y-67149101D01*
X105510897Y-67130534D01*
X105480452Y-67105548D01*
X105455466Y-67075103D01*
X105436899Y-67040367D01*
X105425465Y-67002674D01*
X105421000Y-66957339D01*
X105421000Y-66120661D01*
X105425465Y-66075326D01*
X105436899Y-66037633D01*
X105455466Y-66002897D01*
X105480452Y-65972452D01*
X105510897Y-65947466D01*
X105545633Y-65928899D01*
X105583326Y-65917465D01*
X105628661Y-65913000D01*
X106715339Y-65913000D01*
X106760674Y-65917465D01*
G37*
G36*
X139115000Y-65691000D02*
G01*
X137663000Y-65691000D01*
X137663000Y-63689000D01*
X139115000Y-63689000D01*
X139115000Y-65691000D01*
G37*
G36*
X99648674Y-61354465D02*
G01*
X99686367Y-61365899D01*
X99721103Y-61384466D01*
X99751548Y-61409452D01*
X99776534Y-61439897D01*
X99795101Y-61474633D01*
X99806535Y-61512326D01*
X99811000Y-61557661D01*
X99811000Y-62394339D01*
X99806535Y-62439674D01*
X99795101Y-62477367D01*
X99776534Y-62512103D01*
X99751548Y-62542548D01*
X99721103Y-62567534D01*
X99686367Y-62586101D01*
X99648674Y-62597535D01*
X99603339Y-62602000D01*
X98516661Y-62602000D01*
X98471326Y-62597535D01*
X98433633Y-62586101D01*
X98398897Y-62567534D01*
X98368452Y-62542548D01*
X98343466Y-62512103D01*
X98324899Y-62477367D01*
X98313465Y-62439674D01*
X98309000Y-62394339D01*
X98309000Y-61557661D01*
X98313465Y-61512326D01*
X98324899Y-61474633D01*
X98343466Y-61439897D01*
X98368452Y-61409452D01*
X98398897Y-61384466D01*
X98433633Y-61365899D01*
X98471326Y-61354465D01*
X98516661Y-61350000D01*
X99603339Y-61350000D01*
X99648674Y-61354465D01*
G37*
G36*
X99648674Y-59304465D02*
G01*
X99686367Y-59315899D01*
X99721103Y-59334466D01*
X99751548Y-59359452D01*
X99776534Y-59389897D01*
X99795101Y-59424633D01*
X99806535Y-59462326D01*
X99811000Y-59507661D01*
X99811000Y-60344339D01*
X99806535Y-60389674D01*
X99795101Y-60427367D01*
X99776534Y-60462103D01*
X99751548Y-60492548D01*
X99721103Y-60517534D01*
X99686367Y-60536101D01*
X99648674Y-60547535D01*
X99603339Y-60552000D01*
X98516661Y-60552000D01*
X98471326Y-60547535D01*
X98433633Y-60536101D01*
X98398897Y-60517534D01*
X98368452Y-60492548D01*
X98343466Y-60462103D01*
X98324899Y-60427367D01*
X98313465Y-60389674D01*
X98309000Y-60344339D01*
X98309000Y-59507661D01*
X98313465Y-59462326D01*
X98324899Y-59424633D01*
X98343466Y-59389897D01*
X98368452Y-59359452D01*
X98398897Y-59334466D01*
X98433633Y-59315899D01*
X98471326Y-59304465D01*
X98516661Y-59300000D01*
X99603339Y-59300000D01*
X99648674Y-59304465D01*
G37*
G36*
X139115000Y-59721000D02*
G01*
X137663000Y-59721000D01*
X137663000Y-57719000D01*
X139115000Y-57719000D01*
X139115000Y-59721000D01*
G37*
G36*
X149815000Y-56221000D02*
G01*
X148363000Y-56221000D01*
X148363000Y-54569000D01*
X149815000Y-54569000D01*
X149815000Y-56221000D01*
G37*
G36*
X139915000Y-55871000D02*
G01*
X138813000Y-55871000D01*
X138813000Y-54569000D01*
X139915000Y-54569000D01*
X139915000Y-55871000D01*
G37*
G36*
X143615000Y-55871000D02*
G01*
X142513000Y-55871000D01*
X142513000Y-54569000D01*
X143615000Y-54569000D01*
X143615000Y-55871000D01*
G37*
M02*
